<svg width="24" height="24" viewBox="0 0 24 24" fill="none" xmlns="http://www.w3.org/2000/svg">
<path fill-rule="evenodd" clip-rule="evenodd" d="M12.0005 1C8.76431 1 6.13982 3.62088 6.13915 6.85513C6.12889 10.0795 8.73595 12.7029 11.9619 12.7138L11.9643 12.7138H12.0005C15.2374 12.7138 17.8607 10.0908 17.8607 6.85637C17.8607 3.62175 15.2372 1 12.0005 1ZM7.60435 6.85637C7.60435 4.43061 9.57272 2.46423 12.0005 2.46423C14.428 2.46423 16.3955 4.43042 16.3955 6.85637C16.3955 9.28253 14.4278 11.2496 12.0005 11.2496H11.9657C9.54947 11.2408 7.59616 9.27507 7.60435 6.85886L7.60435 6.85637Z" fill="#707D7E"/>
<path fill-rule="evenodd" clip-rule="evenodd" d="M12.0006 14.2879C9.49585 14.2879 7.08858 14.4649 5.28441 15.0387C4.37983 15.3264 3.56681 15.7321 2.9715 16.3184C2.3557 16.9248 2 17.7001 2 18.6311C2 19.5604 2.3526 20.3364 2.9651 20.9453C3.55763 21.5344 4.36783 21.944 5.27134 22.2354C7.07308 22.8165 9.48118 23 12.0006 23C14.5055 23 16.9124 22.8227 18.7163 22.2487C19.6207 21.9609 20.4336 21.5551 21.0287 20.969C21.6444 20.3626 22 19.5874 22 18.6567C22 17.7278 21.6475 16.9519 21.0351 16.3431C20.4427 15.754 19.6327 15.3444 18.7294 15.0529C16.9279 14.4717 14.5201 14.2879 12.0006 14.2879ZM3.53846 18.6311C3.53846 18.132 3.71428 17.7454 4.05136 17.4134C4.40893 17.0613 4.97015 16.7521 5.75101 16.5037C7.31773 16.0054 9.52615 15.8253 12.0006 15.8253C14.4873 15.8253 16.6946 16.012 18.2567 16.516C19.0351 16.7671 19.5939 17.0789 19.95 17.4329C20.2861 17.7671 20.4615 18.1561 20.4615 18.6567C20.4615 19.1556 20.2858 19.542 19.9488 19.874C19.5913 20.2261 19.0302 20.5353 18.2495 20.7837C16.6831 21.2822 14.475 21.4626 12.0006 21.4626C9.51384 21.4626 7.30624 21.2762 5.74385 20.7723C4.96529 20.5212 4.40631 20.2095 4.05017 19.8554C3.71401 19.5212 3.53846 19.1321 3.53846 18.6311Z" fill="#707D7E"/>
</svg>
