<svg width="24" height="24" viewBox="0 0 24 24" fill="none" xmlns="http://www.w3.org/2000/svg">
<path fill-rule="evenodd" clip-rule="evenodd" d="M7.89744 1C4.64037 1 2 3.63423 2 6.88372V17.1163C2 20.3658 4.64037 23 7.89744 23H16.1026C19.3596 23 22 20.3658 22 17.1163V6.88372C22 3.63423 19.3596 1 16.1026 1H7.89744ZM3.53846 6.88372C3.53846 4.48192 5.49004 2.53488 7.89744 2.53488H16.1026C18.51 2.53488 20.4615 4.48192 20.4615 6.88372V17.1163C20.4615 19.5181 18.51 21.4651 16.1026 21.4651H7.89744C5.49004 21.4651 3.53846 19.5181 3.53846 17.1163V6.88372ZM7.12842 7.40986C7.12842 6.98502 7.47281 6.64062 7.89765 6.64062H10.9746C11.3994 6.64062 11.7438 6.98502 11.7438 7.40986C11.7438 7.83469 11.3994 8.17909 10.9746 8.17909H7.89765C7.47281 8.17909 7.12842 7.83469 7.12842 7.40986ZM7.89765 11.2578C7.47281 11.2578 7.12842 11.6022 7.12842 12.027C7.12842 12.4519 7.47281 12.7963 7.89765 12.7963H16.1028C16.5276 12.7963 16.872 12.4519 16.872 12.027C16.872 11.6022 16.5276 11.2578 16.1028 11.2578H7.89765ZM7.89765 15.8711C7.47281 15.8711 7.12842 16.2155 7.12842 16.6403C7.12842 17.0652 7.47281 17.4096 7.89765 17.4096H16.1028C16.5276 17.4096 16.872 17.0652 16.872 16.6403C16.872 16.2155 16.5276 15.8711 16.1028 15.8711H7.89765Z" fill="#707D7E"/>
</svg>
