<svg width="24" height="24" viewBox="0 0 24 24" fill="none" xmlns="http://www.w3.org/2000/svg">
<path d="M12 21.5C8.95584 21.5 6.479 19.0233 6.479 15.979V6.52865C6.479 4.30715 8.28634 2.49982 10.5078 2.49982C12.7293 2.49982 14.5367 4.30715 14.5367 6.52865V14.9842C14.5367 16.3829 13.3987 17.5208 12 17.5208C10.6013 17.5208 9.46334 16.3829 9.46334 14.9842V7.02598C9.46334 6.72383 9.70832 6.47885 10.0105 6.47885C10.3126 6.47885 10.5576 6.72383 10.5576 7.02598V14.9842C10.5576 15.7796 11.2047 16.4265 12 16.4265C12.7953 16.4265 13.4424 15.7795 13.4424 14.9842V6.52865C13.4424 4.91062 12.126 3.59415 10.5079 3.59415C8.88977 3.59415 7.57337 4.91068 7.57337 6.52865V15.979C7.57337 18.4198 9.5592 20.4057 12 20.4057C14.4409 20.4057 16.4267 18.4198 16.4267 15.979L16.4268 8.02098C16.4268 7.71883 16.6718 7.47385 16.9739 7.47385C17.2761 7.47385 17.521 7.71883 17.521 8.02098V15.9792C17.521 19.0235 15.0442 21.5 12 21.5H12Z" fill="#707D7E"/>
</svg>
