<svg width="40" height="40" viewBox="0 0 40 40" fill="none" xmlns="http://www.w3.org/2000/svg">
<rect width="40" height="40" rx="8" fill="#F1F6F9"/>
<rect x="9.88636" y="9.88636" width="19.5" height="19.5" rx="4.43182" stroke="#707D7E" stroke-width="1.77273"/>
<rect width="13" height="10" transform="translate(19.3638 21.1367)" fill="#F1F6F9"/>
<path d="M21.1365 25.5692L24.6819 29.1147L30.8865 22.9102" stroke="#707D7E" stroke-width="1.77273" stroke-linecap="round"/>
<path d="M17.1209 23.9876V14.3182H17.7404V23.9876H17.1209ZM18.764 17.5098C18.7337 17.2052 18.6041 16.9685 18.3749 16.7997C18.1458 16.631 17.8348 16.5467 17.442 16.5467C17.1751 16.5467 16.9497 16.5844 16.7659 16.66C16.5821 16.733 16.441 16.835 16.3428 16.9659C16.2471 17.0969 16.1993 17.2454 16.1993 17.4116C16.1943 17.5501 16.2232 17.671 16.2862 17.7742C16.3516 17.8775 16.441 17.9669 16.5544 18.0424C16.6677 18.1154 16.7986 18.1797 16.9472 18.235C17.0957 18.2879 17.2544 18.3333 17.4231 18.371L18.1181 18.5372C18.4555 18.6128 18.7652 18.7135 19.0473 18.8394C19.3293 18.9653 19.5735 19.1202 19.78 19.304C19.9865 19.4878 20.1464 19.7043 20.2597 19.9536C20.3755 20.2029 20.4347 20.4887 20.4372 20.811C20.4347 21.2844 20.3138 21.6949 20.0746 22.0424C19.8379 22.3874 19.4955 22.6555 19.0473 22.8469C18.6016 23.0358 18.0639 23.1302 17.4344 23.1302C16.8099 23.1302 16.266 23.0345 15.8027 22.8431C15.3419 22.6518 14.9818 22.3685 14.7225 21.9933C14.4656 21.6156 14.3309 21.1485 14.3183 20.592H15.9009C15.9185 20.8513 15.9928 21.0679 16.1238 21.2416C16.2572 21.4129 16.4347 21.5425 16.6563 21.6307C16.8804 21.7163 17.1335 21.7591 17.4155 21.7591C17.6925 21.7591 17.933 21.7188 18.137 21.6382C18.3434 21.5577 18.5033 21.4456 18.6167 21.3021C18.73 21.1585 18.7866 20.9936 18.7866 20.8073C18.7866 20.6335 18.735 20.4875 18.6318 20.3691C18.531 20.2508 18.3825 20.15 18.1861 20.067C17.9922 19.9839 17.7542 19.9083 17.4722 19.8403L16.6299 19.6288C15.9777 19.4702 15.4628 19.2221 15.0851 18.8847C14.7073 18.5473 14.5197 18.0928 14.5223 17.5212C14.5197 17.0528 14.6444 16.6436 14.8962 16.2936C15.1505 15.9436 15.4993 15.6704 15.9425 15.474C16.3856 15.2776 16.8893 15.1794 17.4533 15.1794C18.0274 15.1794 18.5285 15.2776 18.9566 15.474C19.3872 15.6704 19.7221 15.9436 19.9613 16.2936C20.2005 16.6436 20.3239 17.049 20.3315 17.5098H18.764Z" fill="#707D7E"/>
</svg>
