<svg width="24" height="24" viewBox="0 0 24 24" fill="none" xmlns="http://www.w3.org/2000/svg">
<g clip-path="url(#clip0_298_13049)">
<path d="M22.5 -0.000232601H14.5C14.1022 -0.000232601 13.7206 0.157813 13.4394 0.439147C13.158 0.720387 13 1.10197 13 1.49977V11.4998C12.9992 11.6327 13.0514 11.7604 13.145 11.8548L16.145 14.8548C16.2394 14.9484 16.3671 15.0006 16.5 14.9998H17V16.4998C17.0008 16.8092 17.0974 17.1109 17.2765 17.3633C17.4554 17.6157 17.7082 17.8066 18 17.9098V20.4998C18 21.1628 17.7366 21.7987 17.2677 22.2675C16.7989 22.7364 16.163 22.9998 15.5 22.9998H7.99998C7.33694 22.9998 6.70108 22.7364 6.23224 22.2675C5.76334 21.7987 5.49998 21.1628 5.49998 20.4998V18.9298C5.92818 18.8192 6.30772 18.5698 6.57912 18.2205C6.85052 17.8714 6.99858 17.442 6.99998 16.9998V14.9998C6.99857 14.5575 6.85052 14.1281 6.57912 13.779C6.30772 13.4298 5.92818 13.1803 5.49998 13.0698V8.70977L9.07498 5.20977C9.66794 4.64367 10.0035 3.85961 10.0035 3.03977C10.0035 2.21993 9.66796 1.43587 9.07498 0.869767C8.53358 0.357027 7.83014 0.0494474 7.08616 0.0001674C6.34218 -0.0491286 5.60428 0.162979 4.99996 0.599767C4.39286 0.166247 3.65332 -0.0415526 2.90916 0.0122674C2.1651 0.0661734 1.46322 0.378287 0.924858 0.894767C0.331898 1.46087 -0.00366211 2.24493 -0.00366211 3.06477C-0.00366211 3.88461 0.331878 4.66867 0.924858 5.23477L4.49986 8.73477V13.0948C4.07572 13.2042 3.69924 13.4499 3.4283 13.7941C3.15728 14.1382 3.00674 14.5618 2.99986 14.9998V16.9998C3.00126 17.442 3.14931 17.8714 3.42072 18.2205C3.69212 18.5698 4.07166 18.8192 4.49986 18.9298V20.4998C4.49986 21.428 4.86862 22.3183 5.52502 22.9746C6.18134 23.631 7.07158 23.9997 7.99982 23.9997H15.4998C16.4281 23.9997 17.3183 23.631 17.9746 22.9746C18.631 22.3182 18.9998 21.428 18.9998 20.4998V17.9098C19.2916 17.8066 19.5443 17.6157 19.7233 17.3633C19.9024 17.1109 19.9989 16.8092 19.9998 16.4998V14.9998H20.4998C20.6327 15.0005 20.7604 14.9484 20.8548 14.8548L23.8548 11.8548C23.9484 11.7604 24.0006 11.6327 23.9998 11.4998V1.49977C23.9998 1.10195 23.8417 0.720387 23.5604 0.439147C23.2792 0.157827 22.8976 -0.000232601 22.4998 -0.000232601H22.5ZM0.999978 3.06477C0.997947 2.51517 1.22216 1.98899 1.61998 1.60977C2.02764 1.21923 2.57044 1.00117 3.13498 1.00117C3.69952 1.00117 4.24232 1.21921 4.64998 1.60977C4.74318 1.69992 4.8678 1.75024 4.99748 1.75024C5.12716 1.75024 5.25178 1.69992 5.34498 1.60977C5.75264 1.21923 6.29544 1.00117 6.85998 1.00117C7.42452 1.00117 7.96732 1.21921 8.37498 1.60977C8.77568 1.98767 9.0028 2.51399 9.0028 3.06477C9.0028 3.61555 8.7757 4.14187 8.37498 4.51977L4.99998 7.80477L1.61998 4.49977C1.22716 4.12531 1.00342 3.60743 0.999978 3.06477ZM3.99998 16.9998V14.9998C3.99998 14.6425 4.1906 14.3123 4.49998 14.1337C4.80936 13.9551 5.1906 13.9551 5.49998 14.1337C5.80936 14.3123 5.99998 14.6425 5.99998 14.9998V16.9998C5.99998 17.357 5.80935 17.6872 5.49998 17.8658C5.1906 18.0445 4.80936 18.0445 4.49998 17.8658C4.1906 17.6872 3.99998 17.357 3.99998 16.9998ZM19 16.4998C19 16.6784 18.9047 16.8434 18.75 16.9328C18.5953 17.0221 18.4047 17.0221 18.25 16.9328C18.0953 16.8434 18 16.6783 18 16.4998V14.9998H19V16.4998ZM20.295 13.9998H16.705L14 11.2948V10.4998H15.5C15.6786 10.4998 15.8437 10.4045 15.933 10.2498C16.0223 10.0951 16.0223 9.90445 15.933 9.74977C15.8436 9.59508 15.6786 9.49977 15.5 9.49977H14V7.99977H15.5C15.6786 7.99977 15.8437 7.90446 15.933 7.74977C16.0223 7.59508 16.0223 7.40445 15.933 7.24977C15.8436 7.09508 15.6786 6.99977 15.5 6.99977H14V5.49977H15.5C15.6786 5.49977 15.8437 5.40446 15.933 5.24977C16.0223 5.09508 16.0223 4.90445 15.933 4.74977C15.8436 4.59508 15.6786 4.49977 15.5 4.49977H14V2.99977H15.5C15.6786 2.99977 15.8437 2.90446 15.933 2.74977C16.0223 2.59508 16.0223 2.40445 15.933 2.24977C15.8436 2.09508 15.6786 1.99977 15.5 1.99977H14V1.49977C14 1.36719 14.0526 1.24001 14.1465 1.14625C14.2402 1.05242 14.3674 0.999763 14.5 0.999763H22.5C22.6326 0.999763 22.7597 1.05242 22.8535 1.14625C22.9473 1.24 23 1.36719 23 1.49977V9.49977H17.5C17.3214 9.49977 17.1563 9.59508 17.0669 9.74977C16.9776 9.90446 16.9776 10.0951 17.0669 10.2498C17.1563 10.4045 17.3214 10.4998 17.5 10.4998H23V11.2948L20.295 13.9998Z" fill="#707D7E"/>
</g>
<defs>
<clipPath id="clip0_298_13049">
<rect width="24" height="24" fill="white"/>
</clipPath>
</defs>
</svg>
