<svg width="24" height="24" viewBox="0 0 24 24" fill="none" xmlns="http://www.w3.org/2000/svg">
<path d="M12.801 18.1798L11.2561 19.2573C10.6641 19.6702 10.6911 20.5551 11.3073 20.9311L12.8189 21.8536C12.9758 21.9493 13.1561 22 13.3399 22H21C21.5523 22 22 21.5523 22 21V19C22 18.4477 21.5523 18 21 18H13.3731C13.1685 18 12.9689 18.0627 12.801 18.1798Z" fill="#707D7E"/>
<path fill-rule="evenodd" clip-rule="evenodd" d="M7.89744 2C4.64037 2 2 4.63423 2 7.88372V15.1163C2 18.3658 4.64037 21 7.89744 21H10.0196L9.93758 20.9356C9.47149 20.5699 9.42767 19.8877 9.82506 19.4651H7.89744C5.49004 19.4651 3.53846 17.5181 3.53846 15.1163V7.88372C3.53846 5.48192 5.49004 3.53488 7.89744 3.53488H16.1026C18.51 3.53488 20.4615 5.48192 20.4615 7.88372V15.1163C20.4615 15.7911 20.3075 16.4301 20.0325 17H21.6913C21.8915 16.4086 22 15.7751 22 15.1163V7.88372C22 4.63423 19.3596 2 16.1026 2H7.89744Z" fill="#707D7E"/>
</svg>
