<svg width="24" height="24" viewBox="0 0 24 24" fill="none" xmlns="http://www.w3.org/2000/svg">
<path d="M18.75 10.7666L18.4875 15.0378C18.4818 15.1332 18.4397 15.223 18.37 15.2885C18.3003 15.354 18.2082 15.3904 18.1125 15.3903H17.25L16.815 20.1679C16.8065 20.2614 16.7633 20.3482 16.6939 20.4115C16.6244 20.4747 16.5339 20.5095 16.44 20.5091H12.8624C12.7685 20.5095 12.6779 20.4747 12.6085 20.4115C12.539 20.3483 12.4958 20.2614 12.4874 20.1679L12.0636 15.3755H11.1899C11.0942 15.3756 11.0021 15.3392 10.9324 15.2737C10.8626 15.2082 10.8206 15.1184 10.8149 15.023L10.5599 10.7518C10.5212 10.1768 10.7046 9.6088 11.0723 9.16504C11.4399 8.72128 11.9639 8.43558 12.5361 8.36676C13.9413 8.20176 15.3609 8.20176 16.7661 8.36676C17.3424 8.43387 17.8706 8.72098 18.2402 9.16816C18.6098 9.61542 18.7924 10.1881 18.7498 10.7668L18.75 10.7666ZM14.6512 7.97656C15.2479 7.97656 15.8202 7.73952 16.2422 7.31758C16.6642 6.89562 16.9012 6.32328 16.9012 5.72656C16.9012 5.12984 16.6641 4.5575 16.2422 4.13554C15.8202 3.71358 15.2479 3.47656 14.6512 3.47656C14.0545 3.47656 13.4821 3.7136 13.0602 4.13554C12.6382 4.5575 12.4012 5.12984 12.4012 5.72656C12.4012 6.32328 12.6382 6.89562 13.0602 7.31758C13.4821 7.73954 14.0545 7.97656 14.6512 7.97656ZM7.97998 19.759H5.62498C5.49099 19.759 5.36724 19.8304 5.30022 19.9465C5.23326 20.0625 5.23326 20.2054 5.30022 20.3215C5.36725 20.4375 5.491 20.509 5.62498 20.509H7.97618C8.11016 20.509 8.23392 20.4375 8.30094 20.3215C8.36789 20.2054 8.36789 20.0625 8.30094 19.9465C8.2339 19.8304 8.11015 19.759 7.97618 19.759H7.97998ZM7.97998 15.694H5.62498C5.49099 15.694 5.36724 15.7654 5.30022 15.8815C5.23326 15.9975 5.23326 16.1404 5.30022 16.2565C5.36725 16.3725 5.491 16.444 5.62498 16.444H7.97618C8.11016 16.444 8.23392 16.3725 8.30094 16.2565C8.36789 16.1404 8.36789 15.9975 8.30094 15.8815C8.2339 15.7654 8.11015 15.694 7.97618 15.694H7.97998ZM7.97998 11.6252H5.62498C5.49099 11.6252 5.36724 11.6966 5.30022 11.8127C5.23326 11.9287 5.23326 12.0716 5.30022 12.1877C5.36725 12.3037 5.491 12.3752 5.62498 12.3752H7.97618C8.11016 12.3752 8.23392 12.3037 8.30094 12.1877C8.36789 12.0716 8.36789 11.9287 8.30094 11.8127C8.2339 11.6966 8.11015 11.6252 7.97618 11.6252H7.97998ZM7.97998 7.55636H5.62498C5.49099 7.55636 5.36724 7.62785 5.30022 7.74386C5.23326 7.85988 5.23326 8.00284 5.30022 8.11886C5.36725 8.23488 5.491 8.30636 5.62498 8.30636H7.97618C8.11016 8.30636 8.23392 8.23488 8.30094 8.11886C8.36789 8.00285 8.36789 7.85988 8.30094 7.74386C8.2339 7.62785 8.11015 7.55636 7.97618 7.55636H7.97998ZM7.97998 3.49136H5.62498C5.49099 3.49136 5.36724 3.56285 5.30022 3.67886C5.23326 3.79488 5.23326 3.93784 5.30022 4.05386C5.36725 4.16988 5.491 4.24136 5.62498 4.24136H7.97618C8.11016 4.24136 8.23392 4.16988 8.30094 4.05386C8.36789 3.93785 8.36789 3.79488 8.30094 3.67886C8.2339 3.56285 8.11015 3.49136 7.97618 3.49136H7.97998Z" fill="#707D7E"/>
</svg>
