<svg width="24" height="24" viewBox="0 0 24 24" fill="none" xmlns="http://www.w3.org/2000/svg">
<path d="M9.53846 8.31149H6.32616C7.12206 7.08956 8.29195 6.1573 9.66143 5.65366C11.0309 5.15002 12.5266 5.10198 13.9257 5.5167C15.3247 5.93141 16.5521 6.78668 17.425 7.95501C18.2978 9.12334 18.7693 10.5422 18.7692 12H20C20.0017 10.3558 19.4957 8.75117 18.5511 7.4048C17.6064 6.05842 16.269 5.03588 14.7213 4.47659C13.1736 3.9173 11.4909 3.84849 9.90264 4.27954C8.31435 4.71059 6.89781 5.62053 5.84616 6.88527V4.62298H4.61539V9.54099H9.53846V8.31149ZM14.4615 15.6885H17.6738C16.8779 16.9104 15.7081 17.8427 14.3386 18.3463C12.9691 18.85 11.4734 18.898 10.0743 18.4833C8.67528 18.0686 7.44787 17.2133 6.57503 16.045C5.70219 14.8767 5.23068 13.4578 5.23077 12H4C3.99831 13.6442 4.50429 15.2488 5.44894 16.5952C6.3936 17.9416 7.73096 18.9641 9.27866 19.5234C10.8264 20.0827 12.5091 20.1515 14.0974 19.7205C15.6856 19.2894 17.1022 18.3795 18.1538 17.1147V19.377H19.3846V14.459H14.4615V15.6885Z" fill="#707D7E"/>
</svg>
