<svg width="24" height="24" viewBox="0 0 24 24" fill="none" xmlns="http://www.w3.org/2000/svg">
<path d="M5.25 5C4.38805 5 3.5614 5.34241 2.9519 5.9519C2.34241 6.5614 2 7.38805 2 8.25V15.75C2 16.612 2.34241 17.4386 2.9519 18.0481C3.5614 18.6576 4.38805 19 5.25 19H11.5C12.5 18 12.5 18 14 17.5H5.25C4.78587 17.5 4.34075 17.3156 4.01256 16.9874C3.68437 16.6592 3.5 16.2141 3.5 15.75V11H22V8.25C22 7.8232 21.9159 7.40059 21.7526 7.00628C21.5893 6.61197 21.3499 6.25369 21.0481 5.9519C20.7463 5.65011 20.388 5.41072 19.9937 5.24739C19.5994 5.08406 19.1768 5 18.75 5H5.25ZM20.5 8.25V9.5H3.5V8.25C3.5 7.284 4.284 6.5 5.25 6.5H18.75C19.716 6.5 20.5 7.284 20.5 8.25Z" fill="#057D8A"/>
<path fill-rule="evenodd" clip-rule="evenodd" d="M18.0003 12C16.2204 12 14.7769 13.3104 14.7765 14.9276C14.7709 16.5397 16.2048 17.8514 17.979 17.8569L17.9804 17.8569H18.0003C19.7806 17.8569 21.2234 16.5454 21.2234 14.9282C21.2234 13.3109 19.7805 12 18.0003 12ZM15.5824 14.9282C15.5824 13.7153 16.665 12.7321 18.0003 12.7321C19.3354 12.7321 20.4175 13.7152 20.4175 14.9282C20.4175 16.1413 19.3353 17.1248 18.0003 17.1248H17.9811C16.6522 17.1204 15.5779 16.1375 15.5824 14.9294L15.5824 14.9282Z" fill="#057D8A"/>
<path fill-rule="evenodd" clip-rule="evenodd" d="M18.0003 18.6439C16.6227 18.6439 15.2987 18.7324 14.3064 19.0194C13.8089 19.1632 13.3617 19.3661 13.0343 19.6592C12.6956 19.9624 12.5 20.3501 12.5 20.8156C12.5 21.2802 12.6939 21.6682 13.0308 21.9727C13.3567 22.2672 13.8023 22.472 14.2992 22.6177C15.2902 22.9082 16.6146 23 18.0003 23C19.378 23 20.7018 22.9114 21.694 22.6243C22.1914 22.4804 22.6385 22.2776 22.9658 21.9845C23.3044 21.6813 23.5 21.2937 23.5 20.8284C23.5 20.3639 23.3061 19.976 22.9693 19.6715C22.6435 19.377 22.198 19.1722 21.7012 19.0265C20.7104 18.7358 19.3861 18.6439 18.0003 18.6439ZM13.3462 20.8156C13.3462 20.566 13.4429 20.3727 13.6282 20.2067C13.8249 20.0307 14.1336 19.8761 14.5631 19.7519C15.4247 19.5027 16.6394 19.4126 18.0003 19.4126C19.368 19.4126 20.582 19.506 21.4412 19.758C21.8693 19.8836 22.1767 20.0394 22.3725 20.2165C22.5573 20.3835 22.6538 20.578 22.6538 20.8284C22.6538 21.0778 22.5572 21.271 22.3718 21.437C22.1752 21.613 21.8666 21.7676 21.4372 21.8919C20.5757 22.1411 19.3613 22.2313 18.0003 22.2313C16.6326 22.2313 15.4184 22.1381 14.5591 21.8861C14.1309 21.7606 13.8235 21.6047 13.6276 21.4277C13.4427 21.2606 13.3462 21.066 13.3462 20.8156Z" fill="#057D8A"/>
<path fill-rule="evenodd" clip-rule="evenodd" d="M18.0003 12C16.2204 12 14.7769 13.3104 14.7765 14.9276C14.7709 16.5397 16.2048 17.8514 17.979 17.8569L17.9804 17.8569H18.0003C19.7806 17.8569 21.2234 16.5454 21.2234 14.9282C21.2234 13.3109 19.7805 12 18.0003 12ZM15.5824 14.9282C15.5824 13.7153 16.665 12.7321 18.0003 12.7321C19.3354 12.7321 20.4175 13.7152 20.4175 14.9282C20.4175 16.1413 19.3353 17.1248 18.0003 17.1248H17.9811C16.6522 17.1204 15.5779 16.1375 15.5824 14.9294L15.5824 14.9282Z" stroke="#057D8A" stroke-width="0.4" stroke-linecap="round" stroke-linejoin="round"/>
<path fill-rule="evenodd" clip-rule="evenodd" d="M18.0003 18.6439C16.6227 18.6439 15.2987 18.7324 14.3064 19.0194C13.8089 19.1632 13.3617 19.3661 13.0343 19.6592C12.6956 19.9624 12.5 20.3501 12.5 20.8156C12.5 21.2802 12.6939 21.6682 13.0308 21.9727C13.3567 22.2672 13.8023 22.472 14.2992 22.6177C15.2902 22.9082 16.6146 23 18.0003 23C19.378 23 20.7018 22.9114 21.694 22.6243C22.1914 22.4804 22.6385 22.2776 22.9658 21.9845C23.3044 21.6813 23.5 21.2937 23.5 20.8284C23.5 20.3639 23.3061 19.976 22.9693 19.6715C22.6435 19.377 22.198 19.1722 21.7012 19.0265C20.7104 18.7358 19.3861 18.6439 18.0003 18.6439ZM13.3462 20.8156C13.3462 20.566 13.4429 20.3727 13.6282 20.2067C13.8249 20.0307 14.1336 19.8761 14.5631 19.7519C15.4247 19.5027 16.6394 19.4126 18.0003 19.4126C19.368 19.4126 20.582 19.506 21.4412 19.758C21.8693 19.8836 22.1767 20.0394 22.3725 20.2165C22.5573 20.3835 22.6538 20.578 22.6538 20.8284C22.6538 21.0778 22.5572 21.271 22.3718 21.437C22.1752 21.613 21.8666 21.7676 21.4372 21.8919C20.5757 22.1411 19.3613 22.2313 18.0003 22.2313C16.6326 22.2313 15.4184 22.1381 14.5591 21.8861C14.1309 21.7606 13.8235 21.6047 13.6276 21.4277C13.4427 21.2606 13.3462 21.066 13.3462 20.8156Z" stroke="#057D8A" stroke-width="0.4" stroke-linecap="round" stroke-linejoin="round"/>
</svg>
