<svg width="24" height="24" viewBox="0 0 24 24" fill="none" xmlns="http://www.w3.org/2000/svg">
<path d="M7 14C7 13.5858 7.33579 13.25 7.75 13.25H16.25C16.6642 13.25 17 13.5858 17 14C17 14.4142 16.6642 14.75 16.25 14.75H7.75C7.33579 14.75 7 14.4142 7 14Z" fill="#707D7E"/>
<path d="M7.75 16.25C7.33579 16.25 7 16.5858 7 17C7 17.4142 7.33579 17.75 7.75 17.75H16.25C16.6642 17.75 17 17.4142 17 17C17 16.5858 16.6642 16.25 16.25 16.25H7.75Z" fill="#707D7E"/>
<path fill-rule="evenodd" clip-rule="evenodd" d="M8 3C8.41421 3 8.75 3.33579 8.75 3.75V4.75H15.25V3.75C15.25 3.33579 15.5858 3 16 3C16.4142 3 16.75 3.33579 16.75 3.75V4.75051C18.0717 4.75437 18.7944 4.7878 19.362 5.07698C19.9265 5.3646 20.3854 5.82354 20.673 6.38803C21 7.02976 21 7.86984 21 9.55V16.95C21 18.6302 21 19.4702 20.673 20.112C20.3854 20.6765 19.9265 21.1354 19.362 21.423C18.7202 21.75 17.8802 21.75 16.2 21.75H7.8C6.11984 21.75 5.27976 21.75 4.63803 21.423C4.07354 21.1354 3.6146 20.6765 3.32698 20.112C3 19.4702 3 18.6302 3 16.95V9.55C3 7.86984 3 7.02976 3.32698 6.38803C3.6146 5.82354 4.07354 5.3646 4.63803 5.07698C5.20558 4.7878 5.92826 4.75437 7.25 4.75051V3.75C7.25 3.33579 7.58579 3 8 3ZM15.25 6.25V6.75C15.25 7.16421 15.5858 7.5 16 7.5C16.4142 7.5 16.75 7.16421 16.75 6.75V6.25058C17.3145 6.25231 17.721 6.25915 18.0482 6.28589C18.4557 6.31918 18.6068 6.3757 18.681 6.41349C18.9632 6.5573 19.1927 6.78677 19.3365 7.06901C19.3743 7.14318 19.4308 7.29426 19.4641 7.70175C19.4946 8.07547 19.4992 8.55234 19.4999 9.25H4.50011C4.50077 8.55234 4.50536 8.07547 4.53589 7.70175C4.56918 7.29426 4.6257 7.14318 4.66349 7.06901C4.8073 6.78677 5.03677 6.5573 5.31901 6.41349C5.39318 6.3757 5.54426 6.31918 5.95175 6.28589C6.27905 6.25915 6.68546 6.25231 7.25 6.25058V6.75C7.25 7.16421 7.58579 7.5 8 7.5C8.41421 7.5 8.75 7.16421 8.75 6.75V6.25H15.25ZM4.5 10.75V16.95C4.5 17.8148 4.50117 18.3732 4.53589 18.7982C4.56918 19.2057 4.6257 19.3568 4.66349 19.431C4.8073 19.7132 5.03677 19.9427 5.31901 20.0865C5.39318 20.1243 5.54426 20.1808 5.95175 20.2141C6.37676 20.2488 6.93517 20.25 7.8 20.25H16.2C17.0648 20.25 17.6232 20.2488 18.0482 20.2141C18.4557 20.1808 18.6068 20.1243 18.681 20.0865C18.9632 19.9427 19.1927 19.7132 19.3365 19.431C19.3743 19.3568 19.4308 19.2057 19.4641 18.7982C19.4988 18.3732 19.5 17.8148 19.5 16.95V10.75H4.5Z" fill="#707D7E"/>
</svg>
