<svg width="24" height="24" viewBox="0 0 24 24" fill="none" xmlns="http://www.w3.org/2000/svg">
<path d="M17.4839 21.5993H6.51592C6.28504 21.5939 6.05749 21.543 5.84628 21.4495C5.63507 21.3561 5.44434 21.222 5.28498 21.0548C5.12562 20.8877 5.00076 20.6908 4.91753 20.4753C4.8343 20.2599 4.79434 20.0302 4.79992 19.7993V7.9373H5.99992V19.7993C5.99419 19.8726 6.00302 19.9464 6.02588 20.0163C6.04875 20.0861 6.08521 20.1508 6.13316 20.2066C6.18111 20.2624 6.23962 20.3081 6.3053 20.3412C6.37099 20.3742 6.44257 20.394 6.51592 20.3993H17.4839C17.5573 20.394 17.6289 20.3742 17.6945 20.3412C17.7602 20.3081 17.8187 20.2624 17.8667 20.2066C17.9146 20.1508 17.9511 20.0861 17.974 20.0163C17.9968 19.9464 18.0056 19.8726 17.9999 19.7993V7.9373H19.1999V19.7993C19.2055 20.0302 19.1655 20.2599 19.0823 20.4753C18.9991 20.6908 18.8742 20.8877 18.7149 21.0548C18.5555 21.222 18.3648 21.3561 18.1536 21.4495C17.9424 21.543 17.7148 21.5939 17.4839 21.5993Z" fill="#707D7E"/>
<path d="M19.6681 6.59844H4.2001C4.04097 6.59844 3.88836 6.53522 3.77583 6.4227C3.66331 6.31018 3.6001 6.15757 3.6001 5.99844C3.6001 5.83931 3.66331 5.6867 3.77583 5.57417C3.88836 5.46165 4.04097 5.39844 4.2001 5.39844H19.6681C19.8272 5.39844 19.9798 5.46165 20.0924 5.57417C20.2049 5.6867 20.2681 5.83931 20.2681 5.99844C20.2681 6.15757 20.2049 6.31018 20.0924 6.4227C19.9798 6.53522 19.8272 6.59844 19.6681 6.59844Z" fill="#707D7E"/>
<path d="M13.8 9H15V18H13.8V9Z" fill="#707D7E"/>
<path d="M9 9H10.2V18H9V9Z" fill="#707D7E"/>
<path d="M15 4.71444H13.86V3.59844H10.14V4.71444H9V3.59844C8.99962 3.29031 9.11777 2.99383 9.33 2.77044C9.54223 2.54704 9.83225 2.41384 10.14 2.39844H13.86C14.1677 2.41384 14.4578 2.54704 14.67 2.77044C14.8822 2.99383 15.0004 3.29031 15 3.59844V4.71444Z" fill="#707D7E"/>
</svg>
