<svg width="24" height="24" viewBox="0 0 24 24" fill="none" xmlns="http://www.w3.org/2000/svg">
<path d="M8.74998 2.49781C8.68368 2.49781 8.62009 2.52414 8.57321 2.57103C8.52632 2.61791 8.49998 2.6815 8.49998 2.74781V7.74981C8.49998 7.94873 8.42096 8.13949 8.28031 8.28015C8.13966 8.4208 7.94889 8.49982 7.74998 8.49982H2.74997C2.68367 8.49982 2.62008 8.52615 2.5732 8.57304C2.52631 8.61992 2.49997 8.68351 2.49997 8.74982V15.2498C2.49997 15.3878 2.61197 15.4998 2.74997 15.4998H7.74998C7.94889 15.4998 8.13966 15.5788 8.28031 15.7195C8.42096 15.8602 8.49998 16.0509 8.49998 16.2498V21.2508C8.49998 21.3888 8.61198 21.5008 8.74998 21.5008H15.25C15.3163 21.5008 15.3799 21.4745 15.4268 21.4276C15.4737 21.3807 15.5 21.3171 15.5 21.2508V16.2498C15.5 16.0509 15.579 15.8602 15.7197 15.7195C15.8603 15.5788 16.0511 15.4998 16.25 15.4998H21.25C21.3163 15.4998 21.3799 15.4735 21.4268 15.4266C21.4737 15.3797 21.5 15.3161 21.5 15.2498V8.74982C21.5 8.68351 21.4737 8.61992 21.4268 8.57304C21.3799 8.52615 21.3163 8.49982 21.25 8.49982H16.25C16.0511 8.49982 15.8603 8.4208 15.7197 8.28015C15.579 8.13949 15.5 7.94873 15.5 7.74981V2.74881C15.5 2.6825 15.4737 2.61891 15.4268 2.57203C15.3799 2.52514 15.3163 2.49881 15.25 2.49881L8.74998 2.49781ZM6.99998 2.74781C6.99998 1.7818 7.78398 0.997803 8.74998 0.997803H15.25C16.216 0.997803 17 1.7818 17 2.74781V6.99981H21.25C22.216 6.99981 23 7.78281 23 8.74982V15.2498C23 15.714 22.8156 16.1591 22.4874 16.4873C22.1593 16.8155 21.7141 16.9998 21.25 16.9998H17V21.2508C17 21.715 16.8156 22.1601 16.4874 22.4883C16.1592 22.8165 15.7141 23.0008 15.25 23.0008H8.74998C8.28585 23.0008 7.84073 22.8165 7.51254 22.4883C7.18435 22.1601 6.99998 21.715 6.99998 21.2508V16.9998H2.74997C2.28584 16.9998 1.84072 16.8155 1.51253 16.4873C1.18434 16.1591 0.999969 15.714 0.999969 15.2498V8.74982C0.999969 7.78381 1.78397 6.99981 2.74997 6.99981H6.99998V2.74781Z" fill="#707D7E"/>
</svg>
