<svg width="24" height="24" viewBox="0 0 24 24" fill="none" xmlns="http://www.w3.org/2000/svg">
<path d="M12 1C11.5959 1 11.2683 1.3436 11.2683 1.76744V13.4015L9.06162 11.4174C8.75481 11.1415 8.29288 11.1787 8.02987 11.5005C7.76685 11.8223 7.80234 12.3068 8.10914 12.5826L11.5232 15.6524C11.6597 15.7751 11.8285 15.8367 11.9974 15.8372L12 15.8372C12.1903 15.8372 12.3636 15.761 12.4938 15.6362L15.8908 12.5827C16.1976 12.3069 16.2332 11.8224 15.9702 11.5006C15.7073 11.1788 15.2454 11.1415 14.9385 11.4173L12.7317 13.4008V1.76744C12.7317 1.3436 12.4041 1 12 1Z" fill="#707D7E"/>
<path d="M6.424 23C3.95825 23 2 20.8397 2 18.2301V12.9338C2 10.3233 3.95812 8.16279 6.424 8.16279H7.35884C7.76295 8.16279 8.09055 8.50639 8.09055 8.93023C8.09055 9.35408 7.76295 9.69767 7.35884 9.69767H6.424C4.81182 9.69767 3.46341 11.1225 3.46341 12.9338V18.2301C3.46341 20.0402 4.81169 21.4651 6.424 21.4651H17.576C19.1883 21.4651 20.5366 20.0402 20.5366 18.2301V12.9229C20.5366 11.1178 19.1929 9.69767 17.587 9.69767H16.6422C16.2381 9.69767 15.9105 9.35408 15.9105 8.93023C15.9105 8.50639 16.2381 8.16279 16.6422 8.16279H17.587C20.0471 8.16279 22 10.3192 22 12.9229V18.2301C22 20.8397 20.0418 23 17.576 23H6.424Z" fill="#707D7E"/>
</svg>
