<svg width="24" height="24" viewBox="0 0 24 24" fill="none" xmlns="http://www.w3.org/2000/svg">
<path fill-rule="evenodd" clip-rule="evenodd" d="M18.9022 3.99162C17.5801 2.66946 15.4364 2.66946 14.1142 3.99162L4.46777 13.6381C4.10973 13.9961 3.86972 14.4551 3.77993 14.9534L3.02574 19.1392C2.83039 20.2234 3.77664 21.1696 4.86082 20.9743L9.04657 20.2201C9.5449 20.1303 10.0039 19.8903 10.3619 19.5322L20.0084 9.88576C21.3305 8.56359 21.3305 6.41994 20.0084 5.09778L18.9022 3.99162ZM15.0718 4.94922C15.8651 4.15592 17.1513 4.15592 17.9446 4.94922L19.0508 6.05538C19.8441 6.84867 19.8441 8.13486 19.0508 8.92816L18.3974 9.58154C18.3974 9.58151 18.3974 9.58156 18.3974 9.58154L14.4185 5.60259L15.0718 4.94922ZM13.4609 6.56019L5.42537 14.5957C5.26262 14.7584 5.15352 14.9671 5.11271 15.1936L4.35852 19.3793C4.33061 19.5342 4.46579 19.6694 4.62067 19.6415L8.80643 18.8873C9.03295 18.8465 9.24156 18.7374 9.40431 18.5746L17.4398 10.5391C17.4398 10.5391 17.4398 10.5392 17.4398 10.5391L13.4609 6.56019Z" fill="#707D7E"/>
</svg>
