<svg width="82" height="82" viewBox="0 0 82 82" fill="none" xmlns="http://www.w3.org/2000/svg">
<rect width="82" height="82" rx="10" fill="#F9FAFB"/>
<path d="M48.2916 20.167C43.0833 20.167 38.9166 24.3337 38.9166 29.542C38.9166 34.7503 43.0833 38.917 48.2916 38.917C50.1666 38.917 51.8333 38.292 53.2916 37.4587L59.75 43.917L62.6666 41.0003L56.2083 34.542C57.0416 33.0837 57.6666 31.417 57.6666 29.542C57.6666 24.3337 53.5 20.167 48.2916 20.167ZM24.3333 24.3337C23.2282 24.3337 22.1684 24.7726 21.387 25.554C20.6056 26.3354 20.1666 27.3953 20.1666 28.5003V57.667C20.1666 58.7721 20.6056 59.8319 21.387 60.6133C22.1684 61.3947 23.2282 61.8337 24.3333 61.8337H53.5C54.605 61.8337 55.6648 61.3947 56.4462 60.6133C57.2276 59.8319 57.6666 58.7721 57.6666 57.667V47.2503L53.5 43.0837V57.667H24.3333V28.5003H34.8125C34.9375 27.042 35.2916 25.6878 35.7916 24.3337H24.3333ZM48.2916 24.3337C51.2083 24.3337 53.5 26.6253 53.5 29.542C53.5 32.4587 51.2083 34.7503 48.2916 34.7503C45.375 34.7503 43.0833 32.4587 43.0833 29.542C43.0833 26.6253 45.375 24.3337 48.2916 24.3337Z" fill="#CAD0D9"/>
</svg>
