<svg width="24" height="24" viewBox="0 0 24 24" fill="none" xmlns="http://www.w3.org/2000/svg">
<g clip-path="url(#clip0_51_17522)">
<g clip-path="url(#clip1_51_17522)">
<path d="M11.9999 10.005C13.0608 10.005 14.0782 10.4264 14.8284 11.1766C15.5785 11.9267 15.9999 12.9441 15.9999 14.005C15.9999 15.0659 15.5785 16.0833 14.8284 16.8334C14.0782 17.5836 13.0608 18.005 11.9999 18.005C10.9391 18.005 9.92166 17.5836 9.17151 16.8334C8.42137 16.0833 7.99994 15.0659 7.99994 14.005C7.99994 12.9441 8.42137 11.9267 9.17151 11.1766C9.92166 10.4264 10.9391 10.005 11.9999 10.005ZM11.9999 11.505C11.3369 11.505 10.701 11.7684 10.2322 12.2372C9.76333 12.7061 9.49994 13.342 9.49994 14.005C9.49994 14.668 9.76333 15.3039 10.2322 15.7728C10.701 16.2416 11.3369 16.505 11.9999 16.505C12.663 16.505 13.2989 16.2416 13.7677 15.7728C14.2365 15.3039 14.4999 14.668 14.4999 14.005C14.4999 13.342 14.2365 12.7061 13.7677 12.2372C13.2989 11.7684 12.663 11.505 11.9999 11.505ZM11.9999 6.5C16.6129 6.5 20.5959 9.65 21.7009 14.064C21.7493 14.2569 21.7191 14.4612 21.6169 14.6319C21.5147 14.8025 21.3489 14.9256 21.1559 14.974C20.963 15.0224 20.7587 14.9922 20.5881 14.89C20.4174 14.7878 20.2943 14.6219 20.2459 14.429C19.7829 12.5925 18.7201 10.9631 17.226 9.79913C15.7318 8.6352 13.8919 8.00338 11.9979 8.00384C10.1039 8.0043 8.26426 8.63701 6.77067 9.80167C5.27709 10.9663 4.21505 12.5962 3.75294 14.433C3.72911 14.5286 3.68668 14.6186 3.62807 14.6978C3.56946 14.777 3.49583 14.8439 3.41138 14.8946C3.32692 14.9454 3.2333 14.979 3.13585 14.9935C3.03841 15.0081 2.93904 15.0033 2.84344 14.9795C2.74784 14.9557 2.65787 14.9132 2.57866 14.8546C2.49946 14.796 2.43258 14.7224 2.38183 14.6379C2.33108 14.5535 2.29747 14.4599 2.2829 14.3624C2.26834 14.265 2.27311 14.1656 2.29694 14.07C2.83926 11.9073 4.08859 9.98777 5.84654 8.61627C7.6045 7.24476 9.77028 6.49991 11.9999 6.5Z" fill="#707D7E"/>
</g>
</g>
<defs>
<clipPath id="clip0_51_17522">
<rect width="24" height="24" fill="white"/>
</clipPath>
<clipPath id="clip1_51_17522">
<rect width="24" height="24" fill="white"/>
</clipPath>
</defs>
</svg>
