<svg width="24" height="24" viewBox="0 0 24 24" fill="none" xmlns="http://www.w3.org/2000/svg">
<g clip-path="url(#clip0_51_17518)">
<path d="M3.42473 2.5744C3.36894 2.51861 3.30272 2.47436 3.22983 2.44417C3.15694 2.41398 3.07882 2.39844 2.99993 2.39844C2.92104 2.39844 2.84292 2.41398 2.77003 2.44417C2.69714 2.47436 2.63091 2.51861 2.57513 2.5744C2.51934 2.63018 2.47509 2.69641 2.4449 2.7693C2.41471 2.84218 2.39917 2.9203 2.39917 2.9992C2.39917 3.07809 2.41471 3.15621 2.4449 3.2291C2.47509 3.30198 2.51934 3.36821 2.57513 3.424L6.77513 7.6216C4.69501 9.04039 3.2469 11.2113 2.73593 13.6768C2.71985 13.754 2.71915 13.8336 2.73385 13.9111C2.74855 13.9886 2.77836 14.0625 2.8216 14.1284C2.86483 14.1944 2.92064 14.2512 2.98583 14.2956C3.05102 14.34 3.12431 14.3711 3.20153 14.3872C3.27875 14.4033 3.35837 14.404 3.43586 14.3893C3.51335 14.3746 3.58719 14.3448 3.65316 14.3015C3.71912 14.2583 3.77593 14.2025 3.82033 14.1373C3.86473 14.0721 3.89585 13.9988 3.91193 13.9216C4.14085 12.8135 4.58851 11.7622 5.2287 10.8292C5.8689 9.89617 6.68877 9.10026 7.64033 8.488L9.54353 10.3912C9.05005 10.747 8.63977 11.2058 8.34108 11.7358C8.04238 12.2659 7.86239 12.8544 7.81357 13.4609C7.76475 14.0673 7.84826 14.6771 8.05832 15.2481C8.26838 15.819 8.59998 16.3376 9.03018 16.7677C9.46037 17.1979 9.97889 17.5295 10.5499 17.7396C11.1208 17.9497 11.7306 18.0332 12.3371 17.9844C12.9435 17.9355 13.5321 17.7555 14.0621 17.4568C14.5921 17.1582 15.0509 16.7479 15.4067 16.2544L20.5751 21.424C20.6878 21.5367 20.8406 21.6 20.9999 21.6C21.1593 21.6 21.3121 21.5367 21.4247 21.424C21.5374 21.3113 21.6007 21.1585 21.6007 20.9992C21.6007 20.8399 21.5374 20.6871 21.4247 20.5744L3.42473 2.5744ZM14.5427 15.3904C14.3032 15.7725 13.9807 16.0957 13.599 16.336C13.2174 16.5762 12.7864 16.7274 12.3383 16.7781C11.8902 16.8289 11.4364 16.7779 11.0107 16.6291C10.585 16.4803 10.1983 16.2374 9.87943 15.9185C9.56054 15.5996 9.31765 15.2129 9.16883 14.7872C9.02 14.3615 8.96906 13.9077 9.01981 13.4596C9.07056 13.0115 9.22168 12.5806 9.46194 12.1989C9.70219 11.8173 10.0254 11.4947 10.4075 11.2552L14.5427 15.3904ZM12.1487 9.6016L16.1975 13.6504C16.1599 12.5886 15.7213 11.5804 14.97 10.8291C14.2187 10.0778 13.2106 9.63918 12.1487 9.6016ZM11.9999 7.1992C11.3159 7.1992 10.6451 7.288 10.0007 7.4548L9.03713 6.4912C9.99101 6.16562 10.992 5.99939 11.9999 5.9992C16.4315 5.9992 20.3303 9.2068 21.2639 13.6768C21.2964 13.8327 21.2656 13.9952 21.1783 14.1284C21.0909 14.2617 20.9543 14.3547 20.7983 14.3872C20.6424 14.4197 20.4799 14.3888 20.3467 14.3015C20.2135 14.2142 20.1204 14.0775 20.0879 13.9216C19.2695 9.9916 15.8483 7.1992 11.9999 7.1992Z" fill="#707D7E"/>
</g>
<defs>
<clipPath id="clip0_51_17518">
<rect width="24" height="24" fill="white"/>
</clipPath>
</defs>
</svg>
