<svg width="24" height="24" viewBox="0 0 24 24" fill="none" xmlns="http://www.w3.org/2000/svg">
<path d="M15.9191 11.0183C15.9927 10.8455 16.1315 10.7087 16.3052 10.6374C16.479 10.5662 16.6738 10.5662 16.8475 10.6374C17.0213 10.7087 17.16 10.8455 17.2337 11.0183L21.1037 20.1819C21.1747 20.3545 21.1751 20.5483 21.1047 20.7212C21.0343 20.8942 20.8988 21.0325 20.7273 21.1064C20.6406 21.1414 20.5481 21.1599 20.4545 21.161H12.7037C12.4679 21.1593 12.2482 21.0409 12.1171 20.8448C11.9861 20.6488 11.9606 20.4005 12.0491 20.1819L15.9191 11.0183ZM16.5763 13.1237L13.7781 19.7373H19.3635L16.5763 13.1237Z" fill="#707D7E"/>
<path d="M11.2965 10.5848C11.5353 10.585 11.758 10.7049 11.8896 10.904C12.0213 11.1031 12.0444 11.355 11.9511 11.5748L8.07831 20.7276C8.00534 20.9006 7.86699 21.0377 7.69339 21.1093C7.5198 21.1808 7.32495 21.1808 7.15135 21.1093C6.97776 21.0377 6.83939 20.9006 6.76643 20.7276L2.89643 11.5748C2.8219 11.4005 2.81964 11.2037 2.89026 11.0277C2.96081 10.8517 3.09846 10.711 3.27284 10.6366C3.35956 10.6016 3.45206 10.5831 3.54558 10.582L11.2965 10.5848ZM10.2056 12.0085H4.63657L7.42397 18.6221L10.2194 12.0003L10.2056 12.0085Z" fill="#707D7E"/>
<path d="M7.42364 2.83899C8.26646 2.83899 9.07474 3.17391 9.67064 3.76993C10.2665 4.36603 10.6012 5.17439 10.601 6.01713C10.6007 6.85987 10.2656 7.66815 9.6694 8.26393C9.07316 8.85963 8.26464 9.19409 7.4218 9.19361C6.57898 9.19306 5.77086 8.85775 5.1754 8.26135C4.57986 7.66495 4.24564 6.85643 4.24634 6.01355C4.24712 5.17129 4.5822 4.36387 5.1779 3.76855C5.77368 3.17323 6.58142 2.83887 7.4237 2.83887L7.42364 2.83899ZM7.42364 4.26267C6.81404 4.28673 6.26074 4.62587 5.96262 5.15813C5.66458 5.69047 5.66458 6.33937 5.96262 6.87173C6.26074 7.40399 6.81402 7.74313 7.42364 7.76719C8.03318 7.74312 8.58646 7.40399 8.88458 6.87173C9.18262 6.33939 9.18262 5.69049 8.88458 5.15813C8.58646 4.62587 8.03318 4.28673 7.42364 4.26267Z" fill="#707D7E"/>
<path d="M16.5764 2.83887C17.4187 2.83887 18.2264 3.17325 18.8222 3.76855C19.4179 4.36379 19.753 5.17121 19.7538 6.01355C19.7545 6.85637 19.4203 7.66487 18.8247 8.26135C18.2293 8.85775 17.4211 9.19307 16.5783 9.19361C15.7355 9.19408 14.927 8.85963 14.3307 8.26393C13.7346 7.66823 13.3994 6.86003 13.3992 6.01713C13.3989 5.17423 13.7336 4.36595 14.3295 3.76993C14.9254 3.17391 15.7336 2.83899 16.5765 2.83899L16.5764 2.83887ZM16.5764 4.26255C16.0997 4.24372 15.636 4.41997 15.292 4.75059C14.9481 5.08121 14.7537 5.53769 14.7537 6.01481C14.7537 6.49193 14.9481 6.94841 15.292 7.27903C15.636 7.60965 16.0997 7.78591 16.5764 7.76707C17.186 7.743 17.7393 7.40387 18.0374 6.87161C18.3355 6.33927 18.3355 5.69037 18.0374 5.15801C17.7393 4.62575 17.1861 4.28661 16.5764 4.26255Z" fill="#707D7E"/>
</svg>
