<svg width="24" height="24" viewBox="0 0 24 24" fill="none" xmlns="http://www.w3.org/2000/svg">
<path d="M19.8424 10.4998C19.9444 11.0354 20 11.5953 20 12.1796C20 16.7501 16.8785 20 12.1638 20C11.0916 20.0003 10.0299 19.7936 9.03926 19.3917C8.04863 18.9898 7.14853 18.4005 6.39039 17.6576C5.63225 16.9146 5.03092 16.0326 4.62077 15.0618C4.21061 14.0911 3.99967 13.0507 4 12C3.99967 10.9493 4.21061 9.9089 4.62077 8.93815C5.03092 7.9674 5.63225 7.08536 6.39039 6.34243C7.14853 5.5995 8.04863 5.01024 9.03926 4.60831C10.0299 4.20639 11.0916 3.99968 12.1638 4C14.3681 4 16.21 4.7948 17.6232 6.08533L15.3218 8.34051V8.33482C14.4651 7.53515 13.3779 7.12475 12.1638 7.12475C9.47017 7.12475 7.28078 9.35473 7.28078 11.9951C7.28078 14.6347 9.47017 16.8696 12.1638 16.8696C14.6078 16.8696 16.2714 15.5002 16.6131 13.6197H12.1638V10.4998H19.8433H19.8424Z" fill="#089BAB"/>
</svg>