<svg width="40" height="40" viewBox="0 0 40 40" fill="none" xmlns="http://www.w3.org/2000/svg">
<rect width="40" height="40" rx="8" fill="#F1F6F9"/>
<path d="M16.75 10.4978C16.6837 10.4978 16.6201 10.5241 16.5732 10.571C16.5263 10.6179 16.5 10.6815 16.5 10.7478V15.7498C16.5 15.9487 16.421 16.1395 16.2803 16.2801C16.1397 16.4208 15.9489 16.4998 15.75 16.4998H10.75C10.6837 16.4998 10.6201 16.5262 10.5732 16.573C10.5263 16.6199 10.5 16.6835 10.5 16.7498V23.2498C10.5 23.3878 10.612 23.4998 10.75 23.4998H15.75C15.9489 23.4998 16.1397 23.5788 16.2803 23.7195C16.421 23.8602 16.5 24.0509 16.5 24.2498V29.2508C16.5 29.3888 16.612 29.5008 16.75 29.5008H23.25C23.3163 29.5008 23.3799 29.4745 23.4268 29.4276C23.4737 29.3807 23.5 29.3171 23.5 29.2508V24.2498C23.5 24.0509 23.579 23.8602 23.7197 23.7195C23.8603 23.5788 24.0511 23.4998 24.25 23.4998H29.25C29.3163 23.4998 29.3799 23.4735 29.4268 23.4266C29.4737 23.3797 29.5 23.3161 29.5 23.2498V16.7498C29.5 16.6835 29.4737 16.6199 29.4268 16.573C29.3799 16.5262 29.3163 16.4998 29.25 16.4998H24.25C24.0511 16.4998 23.8603 16.4208 23.7197 16.2801C23.579 16.1395 23.5 15.9487 23.5 15.7498V10.7488C23.5 10.6825 23.4737 10.6189 23.4268 10.572C23.3799 10.5251 23.3163 10.4988 23.25 10.4988L16.75 10.4978ZM15 10.7478C15 9.7818 15.784 8.9978 16.75 8.9978H23.25C24.216 8.9978 25 9.7818 25 10.7478V14.9998H29.25C30.216 14.9998 31 15.7828 31 16.7498V23.2498C31 23.714 30.8156 24.1591 30.4874 24.4873C30.1593 24.8155 29.7141 24.9998 29.25 24.9998H25V29.2508C25 29.715 24.8156 30.1601 24.4874 30.4883C24.1592 30.8165 23.7141 31.0008 23.25 31.0008H16.75C16.2859 31.0008 15.8407 30.8165 15.5125 30.4883C15.1844 30.1601 15 29.715 15 29.2508V24.9998H10.75C10.2858 24.9998 9.84072 24.8155 9.51253 24.4873C9.18434 24.1591 8.99997 23.714 8.99997 23.2498V16.7498C8.99997 15.7838 9.78397 14.9998 10.75 14.9998H15V10.7478Z" fill="#707D7E"/>
</svg>
