<svg width="24" height="24" viewBox="0 0 24 24" fill="none" xmlns="http://www.w3.org/2000/svg">
<circle cx="12" cy="12" r="12" fill="#F1F6F9"/>
<path d="M11.2926 16L11.2926 9.45455H12.8352L12.8352 16H11.2926ZM12.0682 8.52557C11.8239 8.52557 11.6136 8.4446 11.4375 8.28267C11.2614 8.1179 11.1733 7.92045 11.1733 7.69034C11.1733 7.45739 11.2614 7.25994 11.4375 7.09801C11.6136 6.93324 11.8239 6.85085 12.0682 6.85085C12.3153 6.85085 12.5256 6.93324 12.6989 7.09801C12.875 7.25994 12.9631 7.45739 12.9631 7.69034C12.9631 7.92045 12.875 8.1179 12.6989 8.28267C12.5256 8.4446 12.3153 8.52557 12.0682 8.52557Z" fill="#707D7E"/>
</svg>
