<svg width="24" height="24" viewBox="0 0 24 24" fill="none" xmlns="http://www.w3.org/2000/svg">
<path d="M6.78858 2.26715L8.21143 1.83858C8.85914 1.64317 9.55582 1.69015 10.1714 1.97075C10.787 2.25134 11.2795 2.74637 11.5569 3.36344L12.4423 5.33315C12.6809 5.86378 12.7473 6.45579 12.6324 7.0261C12.5174 7.59642 12.2267 8.11643 11.8011 8.51315L10.254 9.95572C10.2349 9.97358 10.2192 9.99479 10.2077 10.0183C10.0457 10.3492 10.2917 11.2329 11.0623 12.5683C11.9314 14.0734 12.6026 14.6683 12.9137 14.5766L14.9443 13.9552C15.5004 13.7853 16.0957 13.7938 16.6467 13.9793C17.1978 14.1648 17.677 14.5182 18.0171 14.9897L19.2754 16.7323C19.6705 17.2794 19.8535 17.9514 19.7904 18.6233C19.7273 19.2952 19.4225 19.9214 18.9326 20.3854L17.85 21.4097C17.4735 21.7663 17.0164 22.0265 16.5176 22.1682C16.0188 22.3098 15.4931 22.3287 14.9854 22.2232C11.9709 21.5957 9.27001 19.1683 6.85972 14.994C4.44858 10.8172 3.69686 7.26001 4.66543 4.33458C4.82757 3.84481 5.10521 3.40127 5.4749 3.04142C5.84459 2.68158 6.29461 2.41601 6.78858 2.26715ZM7.16058 3.49801C6.86419 3.58728 6.59364 3.74659 6.37179 3.96247C6.14995 4.17834 5.98333 4.44445 5.88601 4.73829C5.05115 7.25915 5.72743 10.4614 7.97315 14.3512C10.2171 18.2383 12.6497 20.424 15.2469 20.964C15.5516 21.0274 15.8672 21.016 16.1666 20.931C16.466 20.8459 16.7404 20.6896 16.9663 20.4754L18.048 19.452C18.3119 19.2022 18.4762 18.865 18.5102 18.5032C18.5443 18.1414 18.4458 17.7795 18.2331 17.4849L16.9749 15.7414C16.7917 15.4876 16.5338 15.2974 16.2371 15.1974C15.9405 15.0975 15.62 15.0929 15.3206 15.1843L13.2849 15.8074C12.1586 16.1426 11.0991 15.204 9.94886 13.2103C8.97429 11.5234 8.63658 10.3046 9.05315 9.45344C9.13372 9.28887 9.24343 9.14058 9.37715 9.01544L10.9243 7.57287C11.1535 7.35925 11.3101 7.07921 11.3721 6.77206C11.434 6.46491 11.3982 6.14607 11.2697 5.86029L10.3843 3.89144C10.2349 3.55909 9.96972 3.29246 9.63817 3.14136C9.30661 2.99025 8.93139 2.96499 8.58258 3.07029L7.15972 3.49887L7.16058 3.49801Z" fill="#707D7E"/>
</svg>
