<svg width="24" height="24" viewBox="0 0 24 24" fill="none" xmlns="http://www.w3.org/2000/svg">
<path d="M21.952 12.992L21.754 14.029C21.569 15 20.662 15.652 19.634 15.553L17.587 15.355C16.695 15.269 15.935 14.635 15.709 13.789L15.077 11.434C14.143 11.051 13.113 10.876 11.987 10.909C10.9036 10.9323 9.83588 11.1727 8.84703 11.616L8.45603 13.821C8.30803 14.657 7.61803 15.28 6.74503 15.368L4.71003 15.572C3.69503 15.674 2.72203 15.028 2.43303 14.062L2.12403 13.025C1.81603 11.993 2.09103 10.907 2.84503 10.174C4.62603 8.444 7.59503 7.576 11.752 7.57C15.916 7.565 18.977 8.428 20.937 10.158C21.761 10.886 22.147 11.964 21.952 12.992Z" fill="#707D7E"/>
</svg>
