<svg width="22" height="20" viewBox="0 0 22 20" fill="none" xmlns="http://www.w3.org/2000/svg">
<path d="M7.16279 10C7.16279 9.59589 7.50639 9.26829 7.93023 9.26829L19.5643 9.26829L17.5801 7.06162C17.3043 6.75481 17.3415 6.29288 17.6633 6.02987C17.9851 5.76685 18.4696 5.80234 18.7454 6.10914L21.8152 9.52319C21.9379 9.65966 21.9995 9.82845 22 9.99738L22 10C22 10.1903 21.9238 10.3636 21.7989 10.4938L18.7455 13.8908C18.4697 14.1976 17.9852 14.2332 17.6634 13.9702C17.3416 13.7073 17.3043 13.2454 17.5801 12.9385L19.5636 10.7317L7.93023 10.7317C7.50639 10.7317 7.16279 10.4041 7.16279 10Z" fill="#707D7E"/>
<path d="M-1.93379e-07 4.42399C-8.55977e-08 1.95825 2.16033 -8.6722e-07 4.76987 -7.53153e-07L10.0662 -5.21641e-07C12.6767 -4.07532e-07 14.8372 1.95812 14.8372 4.42399L14.8372 5.35884C14.8372 5.76295 14.4936 6.09055 14.0698 6.09055C13.6459 6.09055 13.3023 5.76295 13.3023 5.35884L13.3023 4.42399C13.3023 2.81182 11.8775 1.46341 10.0662 1.46341L4.76987 1.46341C2.9598 1.46341 1.53488 2.81169 1.53488 4.42399L1.53488 15.576C1.53488 17.1883 2.9598 18.5366 4.76987 18.5366L10.0771 18.5366C11.8822 18.5366 13.3023 17.1929 13.3023 15.587L13.3023 14.6422C13.3023 14.2381 13.6459 13.9105 14.0698 13.9105C14.4936 13.9105 14.8372 14.2381 14.8372 14.6422L14.8372 15.587C14.8372 18.0471 12.6808 20 10.0771 20L4.76987 20C2.16033 20 -7.8863e-07 18.0418 -6.80849e-07 15.576L-1.93379e-07 4.42399Z" fill="#707D7E"/>
</svg>
