<svg width="34" height="34" viewBox="0 0 34 34" fill="none" xmlns="http://www.w3.org/2000/svg">
<path d="M18.7 3.92308C18.7 1.75642 20.4564 0 22.6231 0H23.2769C25.4436 0 27.2 1.75642 27.2 3.92308V15.3H18.7V3.92308Z" fill="#FFC249"/>
<path d="M30.0769 6.79993C32.2436 6.79993 34 8.55635 34 10.723L34 11.3769C34 13.5435 32.2436 15.2999 30.0769 15.2999L18.7 15.2999L18.7 6.79993L30.0769 6.79993Z" fill="#FFC249"/>
<rect width="8.5" height="15.3" transform="matrix(1 0 0 -1 18.7 34)" fill="white"/>
<rect width="8.5" height="15.3" transform="matrix(-4.37114e-08 -1 -1 4.37114e-08 34 27.2001)" fill="white"/>
<rect width="8.5" height="15.3" transform="matrix(-1 0 0 1 15.3 0)" fill="white"/>
<rect width="8.5" height="15.3" transform="matrix(4.37114e-08 1 1 -4.37114e-08 -1.52588e-05 6.79993)" fill="white"/>
<rect x="15.3" y="34" width="8.5" height="15.3" transform="rotate(180 15.3 34)" fill="white"/>
<rect x="-1.52588e-05" y="27.2001" width="8.5" height="15.3" transform="rotate(-90 -1.52588e-05 27.2001)" fill="white"/>
</svg>
