<svg width="26" height="26" viewBox="0 0 26 26" fill="none" xmlns="http://www.w3.org/2000/svg">
<path d="M14.3 3C14.3 1.34314 15.6432 0 17.3 0H17.8C19.4569 0 20.8 1.34315 20.8 3V11.7H14.3V3Z" fill="#FFC249"/>
<path d="M23 5.2002C24.6569 5.2002 26 6.54334 26 8.2002L26 8.7002C26 10.357 24.6569 11.7002 23 11.7002L14.3 11.7002L14.3 5.20019L23 5.2002Z" fill="#FFC249"/>
<rect width="6.5" height="11.7" transform="matrix(1 0 0 -1 14.3 26)" fill="#089BAB"/>
<rect width="6.5" height="11.7" transform="matrix(-4.37114e-08 -1 -1 4.37114e-08 26 20.7998)" fill="#089BAB"/>
<rect width="6.5" height="11.7" transform="matrix(-1 0 0 1 11.7 0)" fill="#089BAB"/>
<rect width="6.5" height="11.7" transform="matrix(4.37114e-08 1 1 -4.37114e-08 0 5.2002)" fill="#089BAB"/>
<rect x="11.7" y="26" width="6.5" height="11.7" transform="rotate(180 11.7 26)" fill="#089BAB"/>
<rect y="20.7998" width="6.5" height="11.7" transform="rotate(-90 0 20.7998)" fill="#089BAB"/>
</svg>
