<svg width="24" height="24" viewBox="0 0 24 24" fill="none" xmlns="http://www.w3.org/2000/svg">
<path d="M3 3L21 21M9 9C9 10.3261 9.52678 11.5979 10.4645 12.5355C11.4021 13.4732 12.6739 14 14 14M15 10.5V5C15 4.20435 14.6839 3.44129 14.1213 2.87868C13.5587 2.31607 12.7956 2 12 2C11.2044 2 10.4413 2.31607 9.87868 2.87868C9.31607 3.44129 9 4.20435 9 5V5.5" stroke="#AFBCBD" stroke-width="1.5" stroke-linecap="round" stroke-linejoin="round"/>
<path d="M5 10V11C5 12.8565 5.7375 14.637 7.05025 15.9497C8.36301 17.2625 10.1435 18 12 18M12 18C13.8565 18 15.637 17.2625 16.9497 15.9497C18.2625 14.637 19 12.8565 19 11V10M12 18V22M12 22H9M12 22H15" stroke="#AFBCBD" stroke-width="1.5" stroke-linecap="round" stroke-linejoin="round"/>
</svg>
