<svg width="24" height="24" viewBox="0 0 24 24" fill="none" xmlns="http://www.w3.org/2000/svg">
<path fill-rule="evenodd" clip-rule="evenodd" d="M5.06348 12.0625C5.06348 11.6634 5.38705 11.3398 5.7862 11.3398L11.3408 11.3398V5.78522C11.3408 5.38607 11.6643 5.0625 12.0635 5.0625C12.4626 5.0625 12.7862 5.38607 12.7862 5.78522V11.3398L18.3408 11.3398C18.7399 11.3398 19.0635 11.6634 19.0635 12.0625C19.0635 12.4616 18.7399 12.7852 18.3408 12.7852L12.7862 12.7852V18.3398C12.7862 18.7389 12.4626 19.0625 12.0635 19.0625C11.6643 19.0625 11.3408 18.7389 11.3408 18.3398V12.7852H5.7862C5.38705 12.7852 5.06348 12.4616 5.06348 12.0625Z" fill="#707D7E"/>
</svg>
