<svg width="24" height="24" viewBox="0 0 24 24" fill="none" xmlns="http://www.w3.org/2000/svg">
<path d="M16.0482 15.0737L19 18.0248L18.0248 19L15.0737 16.0482C13.9757 16.9285 12.6099 17.4072 11.2026 17.4052C7.77877 17.4052 5 14.6265 5 11.2026C5 7.77877 7.77877 5 11.2026 5C14.6265 5 17.4052 7.77877 17.4052 11.2026C17.4072 12.6099 16.9285 13.9757 16.0482 15.0737ZM14.6657 14.5624C15.5404 13.6629 16.0289 12.4572 16.0269 11.2026C16.0269 8.53687 13.8677 6.37836 11.2026 6.37836C8.53687 6.37836 6.37836 8.53687 6.37836 11.2026C6.37836 13.8677 8.53687 16.0269 11.2026 16.0269C12.4572 16.0289 13.6629 15.5404 14.5624 14.6657L14.6657 14.5624Z" fill="#899596"/>
</svg>
