<svg width="24" height="24" viewBox="0 0 24 24" fill="none" xmlns="http://www.w3.org/2000/svg">
<path d="M17.8998 21.9999C17.4451 21.9999 17.0026 21.8213 16.6682 21.4869H16.6681L12.9374 17.756C12.8341 17.6529 12.6903 17.601 12.5459 17.612L7.89743 17.9839C7.38667 18.026 6.88509 17.8404 6.52227 17.4777C6.15961 17.115 5.97499 16.6137 6.01597 16.1024L6.38796 11.454C6.39954 11.3086 6.34698 11.1657 6.2437 11.0626L2.51314 7.33176C2.04172 6.86034 1.88012 6.17477 2.09105 5.54265C2.30205 4.91054 2.84297 4.45954 3.5028 4.36593L20.0057 2.01787C20.5554 1.93955 21.0954 2.12019 21.4879 2.51245C21.8801 2.90492 22.0602 3.44507 21.9821 3.99435L19.6344 20.497C19.5405 21.1568 19.0895 21.6975 18.4573 21.9085C18.2739 21.9698 18.0859 21.9997 17.8999 21.9997L17.8998 21.9999ZM17.552 20.6031C17.7483 20.7994 17.9736 20.7524 18.0614 20.7232C18.1492 20.6939 18.3576 20.596 18.3966 20.3212L20.7445 3.81831C20.7668 3.66186 20.7155 3.50807 20.6038 3.39637C20.4919 3.28466 20.3382 3.23422 20.1816 3.2554L3.67861 5.60345C3.40373 5.64251 3.30601 5.85085 3.27668 5.9385C3.24741 6.02622 3.20047 6.25162 3.39695 6.44816L7.12751 10.1787C7.49018 10.541 7.67467 11.0421 7.63402 11.5536L7.26189 16.2021C7.24599 16.4015 7.34543 16.5331 7.40615 16.5938C7.4668 16.6546 7.59749 16.7506 7.79766 16.738L12.4461 16.3661C12.957 16.3228 13.4586 16.5098 13.8213 16.8721L17.552 20.6031Z" fill="#707D7E"/>
<path d="M6.65227 17.9998C6.48526 17.9998 6.3184 17.9361 6.19107 17.8087C5.93631 17.5542 5.93631 17.1409 6.19107 16.8863L20.8866 2.19101C21.1412 1.93603 21.5545 1.93647 21.8089 2.19101C22.0637 2.44556 22.0637 2.85884 21.8089 3.11339L7.11344 17.8089C6.98613 17.9363 6.81913 17.9999 6.6522 17.9999L6.65227 17.9998Z" fill="#707D7E"/>
</svg>
