<svg width="40" height="40" viewBox="0 0 40 40" fill="none" xmlns="http://www.w3.org/2000/svg">
<rect width="40" height="40" rx="8" fill="#F1F6F9"/>
<path d="M20.9615 8.00015C20.9615 7.74525 20.7549 7.53861 20.5 7.53861C20.2451 7.53861 20.0385 7.74525 20.0385 8.00015H20.9615ZM20.1736 15.7111C20.3539 15.8914 20.6461 15.8914 20.8264 15.7111L23.7636 12.7739C23.9438 12.5937 23.9438 12.3014 23.7636 12.1212C23.5833 11.941 23.2911 11.941 23.1109 12.1212L20.5 14.7321L17.8891 12.1212C17.7089 11.941 17.4167 11.941 17.2364 12.1212C17.0562 12.3014 17.0562 12.5937 17.2364 12.7739L20.1736 15.7111ZM20.0385 8.00015V15.3848H20.9615V8.00015H20.0385Z" fill="#707D7E"/>
<path d="M28.5385 22.717H11.4615V22.0179C11.4615 21.3353 11.7245 20.6835 12.1881 20.2051C12.6513 19.7272 13.2764 19.4615 13.925 19.4615H26.075C26.3965 19.4615 26.7151 19.5268 27.013 19.6541C27.3108 19.7814 27.5824 19.9684 27.8119 20.2051C28.0413 20.4419 28.2241 20.7237 28.349 21.0349C28.474 21.3461 28.5385 21.6802 28.5385 22.0179V22.717ZM11.4615 25.033H28.5385V28.9821C28.5385 29.3198 28.474 29.6539 28.349 29.9651C28.2241 30.2763 28.0413 30.5581 27.8119 30.7949C27.5824 31.0316 27.3108 31.2186 27.013 31.3459C26.7151 31.4732 26.3965 31.5385 26.075 31.5385H13.925C13.2764 31.5385 12.6513 31.2728 12.1881 30.7949C11.7245 30.3165 11.4615 29.6647 11.4615 28.9821V25.033ZM25.625 27.3599H23.375C23.0688 27.3599 22.7782 27.4855 22.5663 27.7042C22.3548 27.9224 22.2385 28.2153 22.2385 28.5179C22.2385 28.8204 22.3548 29.1133 22.5663 29.3315C22.7782 29.5502 23.0688 29.6758 23.375 29.6758H25.625C25.9312 29.6758 26.2218 29.5502 26.4337 29.3315C26.6452 29.1133 26.7615 28.8204 26.7615 28.5179C26.7615 28.2153 26.6452 27.9224 26.4337 27.7042C26.2218 27.4855 25.9312 27.3599 25.625 27.3599Z" fill="#707D7E" stroke="#707D7E" stroke-width="0.923077"/>
</svg>
