<svg width="24" height="24" viewBox="0 0 24 24" fill="none" xmlns="http://www.w3.org/2000/svg">
<path d="M4.125 4C3.56141 4 3.02091 4.22388 2.6224 4.6224C2.22388 5.02091 2 5.56141 2 6.125V17.875C2 18.4386 2.22388 18.9791 2.6224 19.3776C3.02091 19.7761 3.56141 20 4.125 20H19.875C20.4386 20 20.9791 19.7761 21.3776 19.3776C21.7761 18.9791 22 18.4386 22 17.875V6.125C22 5.56141 21.7761 5.02091 21.3776 4.6224C20.9791 4.22388 20.4386 4 19.875 4H4.125ZM12 7.375C12.1655 7.375 12.325 7.441 12.442 7.558L15.442 10.558C15.5592 10.6752 15.6251 10.8342 15.6251 11C15.6251 11.1658 15.5592 11.3248 15.442 11.442C15.3248 11.5592 15.1658 11.6251 15 11.6251C14.8342 11.6251 14.6752 11.5592 14.558 11.442L12.625 9.509V15.875C12.625 16.0408 12.5592 16.1997 12.4419 16.3169C12.3247 16.4342 12.1658 16.5 12 16.5C11.8342 16.5 11.6753 16.4342 11.5581 16.3169C11.4408 16.1997 11.375 16.0408 11.375 15.875V9.509L9.442 11.442C9.32477 11.5592 9.16578 11.6251 9 11.6251C8.83422 11.6251 8.67523 11.5592 8.558 11.442C8.44077 11.3248 8.37492 11.1658 8.37492 11C8.37492 10.8342 8.44077 10.6752 8.558 10.558L11.558 7.558C11.616 7.49997 11.685 7.45394 11.7608 7.42254C11.8366 7.39114 11.9179 7.37498 12 7.375Z" fill="#AFBCBD"/>
</svg>
