<svg width="40" height="40" viewBox="0 0 40 40" fill="none" xmlns="http://www.w3.org/2000/svg">
<rect width="40" height="40" rx="8" fill="#F2F4F8"/>
<path d="M12.8 12.8C12.8 12.1635 13.0528 11.553 13.5029 11.1029C13.953 10.6529 14.5635 10.4 15.2 10.4H24.8C25.4365 10.4 26.047 10.6529 26.497 11.1029C26.9471 11.553 27.2 12.1635 27.2 12.8V20.3288L27.1784 20.3204C27.1279 19.9999 26.9918 19.699 26.7843 19.4495C26.5769 19.2001 26.3059 19.0113 26 18.9032V12.8C26 12.4817 25.8736 12.1765 25.6485 11.9515C25.4235 11.7264 25.1182 11.6 24.8 11.6H15.2C14.8817 11.6 14.5765 11.7264 14.3515 11.9515C14.1264 12.1765 14 12.4817 14 12.8V27.2C14 27.5183 14.1264 27.8235 14.3515 28.0485C14.5765 28.2736 14.8817 28.4 15.2 28.4H20.9324C21.2374 28.8537 21.6097 29.2583 22.0364 29.6H15.2C14.5635 29.6 13.953 29.3471 13.5029 28.8971C13.0528 28.447 12.8 27.8365 12.8 27.2V12.8ZM26.0672 26.3984C25.9362 26.4869 25.789 26.5487 25.634 26.5801C25.479 26.6116 25.3194 26.6121 25.1642 26.5816C25.0091 26.5512 24.8615 26.4904 24.7299 26.4027C24.5983 26.315 24.4854 26.2022 24.3975 26.0707C24.3097 25.9392 24.2487 25.7917 24.2181 25.6366C24.1875 25.4814 24.1878 25.3218 24.219 25.1668C24.2503 25.0118 24.3119 24.8645 24.4003 24.7334C24.4886 24.6023 24.6021 24.4899 24.734 24.4028C24.9985 24.2402 25.3156 24.1864 25.6189 24.2528C25.9222 24.3191 26.1879 24.5004 26.3604 24.7586C26.5328 25.0167 26.5984 25.3317 26.5436 25.6372C26.4887 25.9428 26.3175 26.2152 26.066 26.3972L26.0672 26.3984ZM29.5388 24.8H30.2C30.3591 24.8 30.5117 24.8632 30.6243 24.9757C30.7368 25.0883 30.8 25.2409 30.8 25.4C30.8 25.5591 30.7368 25.7117 30.6243 25.8243C30.5117 25.9368 30.3591 26 30.2 26H29.5388C29.409 26.8924 28.9944 27.7191 28.3567 28.3568C27.7191 28.9944 26.8924 29.409 26 29.5388V30.2C26 30.3591 25.9368 30.5117 25.8243 30.6243C25.7117 30.7368 25.5591 30.8 25.4 30.8C25.2409 30.8 25.0882 30.7368 24.9757 30.6243C24.8632 30.5117 24.8 30.3591 24.8 30.2V29.5388C23.9076 29.409 23.0809 28.9944 22.4432 28.3568C21.8055 27.7191 21.3909 26.8924 21.2612 26H20.6C20.4409 26 20.2882 25.9368 20.1757 25.8243C20.0632 25.7117 20 25.5591 20 25.4C20 25.2409 20.0632 25.0883 20.1757 24.9757C20.2882 24.8632 20.4409 24.8 20.6 24.8H21.2612C21.3909 23.9076 21.8055 23.0809 22.4432 22.4432C23.0809 21.8056 23.9076 21.391 24.8 21.2612V20.6C24.8 20.4409 24.8632 20.2883 24.9757 20.1757C25.0882 20.0632 25.2409 20 25.4 20C25.5591 20 25.7117 20.0632 25.8243 20.1757C25.9368 20.2883 26 20.4409 26 20.6V21.2612C26.8924 21.391 27.7191 21.8056 28.3567 22.4432C28.9944 23.0809 29.409 23.9076 29.5388 24.8ZM25.694 28.3856C26.0861 28.347 26.4667 28.2315 26.8141 28.0458C27.1616 27.8601 27.4691 27.6078 27.719 27.3032C27.969 26.9987 28.1565 26.6479 28.2708 26.2709C28.3852 25.8939 28.4242 25.4981 28.3856 25.106C28.347 24.7139 28.2315 24.3333 28.0458 23.9858C27.8601 23.6384 27.6078 23.3309 27.3032 23.081C26.9987 22.831 26.6479 22.6435 26.2709 22.5292C25.8939 22.4148 25.4981 22.3758 25.106 22.4144C24.3142 22.4924 23.5857 22.8817 23.081 23.4967C22.5762 24.1118 22.3364 24.9022 22.4144 25.694C22.4924 26.4858 22.8817 27.2143 23.4967 27.719C24.1118 28.2238 24.9022 28.4636 25.694 28.3856Z" fill="#AFB4BD"/>
</svg>
