<svg width="18" height="21" viewBox="0 0 18 21" fill="none" xmlns="http://www.w3.org/2000/svg">
<path d="M16 5L14.657 6.343M14.657 6.343C13.1566 4.84267 11.1217 3.99979 8.99996 3.99979C6.87818 3.99979 4.84329 4.84267 3.34296 6.343C1.84263 7.84333 0.999756 9.87821 0.999756 12C0.999756 14.1218 1.84263 16.1567 3.34296 17.657C4.84329 19.1573 6.87818 20.0002 8.99996 20.0002C11.1217 20.0002 13.1566 19.1573 14.657 17.657C16.1573 16.1567 17.0002 14.1218 17.0002 12C17.0002 9.87821 16.1573 7.84333 14.657 6.343ZM8.99996 8V12M5.99996 1H12" stroke="#AFBCBD" stroke-width="1.5" stroke-linecap="round" stroke-linejoin="round"/>
</svg>
