<svg width="24" height="24" viewBox="0 0 24 24" fill="none" xmlns="http://www.w3.org/2000/svg">
<path d="M16.9125 17.973L21.2197 22.2803C21.3612 22.4169 21.5507 22.4925 21.7473 22.4908C21.9439 22.489 22.1321 22.4102 22.2711 22.2711C22.4102 22.1321 22.489 21.9439 22.4908 21.7473C22.4925 21.5507 22.4169 21.3612 22.2803 21.2197L2.78025 1.71975C2.6388 1.58313 2.44935 1.50754 2.2527 1.50924C2.05605 1.51095 1.86794 1.58983 1.72889 1.72889C1.58983 1.86794 1.51095 2.05605 1.50924 2.2527C1.50754 2.44935 1.58313 2.6388 1.71975 2.78025L3.402 4.4625C2.83174 4.73913 2.35089 5.17074 2.01451 5.70793C1.67814 6.24513 1.49983 6.86618 1.5 7.5V16.5C1.5 17.3951 1.85558 18.2535 2.48851 18.8865C3.12145 19.5194 3.97989 19.875 4.875 19.875H13.875C14.5088 19.8752 15.1299 19.6969 15.6671 19.3605C16.2043 19.0241 16.6359 18.5433 16.9125 17.973ZM15.7275 16.788C15.6588 17.23 15.4343 17.6329 15.0946 17.9239C14.7549 18.215 14.3223 18.3749 13.875 18.375H4.875C4.37772 18.375 3.90081 18.1775 3.54918 17.8258C3.19754 17.4742 3 16.9973 3 16.5V7.5C3.00003 7.05278 3.15991 6.62031 3.45078 6.28061C3.74166 5.94091 4.14437 5.71637 4.58625 5.6475L15.7283 16.7887L15.7275 16.788ZM15.75 7.5V13.0988L20.355 17.703L20.4 17.7375C21.2655 18.3862 22.5 17.769 22.5 16.6875V7.3125C22.5 6.23025 21.2655 5.613 20.4 6.2625L17.25 8.625V7.5C17.25 6.60489 16.8944 5.74645 16.2615 5.11351C15.6285 4.48058 14.7701 4.125 13.875 4.125H6.77625L8.27625 5.625H13.875C14.3723 5.625 14.8492 5.82254 15.2008 6.17418C15.5525 6.52581 15.75 7.00272 15.75 7.5ZM17.25 10.5L21 7.6875V16.3125L17.25 13.5V10.5Z" fill="#AFBCBD"/>
</svg>
