<svg width="24" height="24" viewBox="0 0 24 24" fill="none" xmlns="http://www.w3.org/2000/svg">
<path d="M10.8575 3.38378C11.3608 2.53874 12.6389 2.53874 13.1422 3.38378L22.076 18.3838C22.5514 19.182 21.9814 20.25 20.9336 20.25H3.06609C2.01832 20.25 1.4483 19.182 1.92371 18.3838L10.8575 3.38378Z" stroke="#ED5252" stroke-width="1.5"/>
<path d="M12.7074 8L12.7074 14.5455L11.1648 14.5455L11.1648 8L12.7074 8ZM11.9318 15.4744C12.1761 15.4744 12.3864 15.5554 12.5625 15.7173C12.7386 15.8821 12.8267 16.0795 12.8267 16.3097C12.8267 16.5426 12.7386 16.7401 12.5625 16.902C12.3864 17.0668 12.1761 17.1491 11.9318 17.1491C11.6847 17.1491 11.4744 17.0668 11.3011 16.902C11.125 16.7401 11.0369 16.5426 11.0369 16.3097C11.0369 16.0795 11.125 15.8821 11.3011 15.7173C11.4744 15.5554 11.6847 15.4744 11.9318 15.4744Z" fill="#ED5252"/>
</svg>
