<svg width="24" height="24" viewBox="0 0 24 24" fill="none" xmlns="http://www.w3.org/2000/svg">
<g clip-path="url(#clip0_298_10033)">
<path d="M18.84 0H5.16C2.3148 0 0 2.3148 0 5.16V18.84C0 21.6852 2.3148 24 5.16 24H18.84C21.6852 24 24 21.6852 24 18.84V5.16C24 2.3148 21.6852 0 18.84 0ZM22.8 18.84C22.8 21.0236 21.0235 22.8 18.84 22.8H5.16C2.9764 22.8 1.2 21.0235 1.2 18.84V5.16C1.2 2.9764 2.97648 1.2 5.16 1.2H18.84C21.0236 1.2 22.8 2.97648 22.8 5.16V18.84Z" fill="#707D7E"/>
<path d="M14.8429 9.01706C14.8568 9.02136 14.87 9.0262 14.8839 9.02909C14.9276 9.03894 14.971 9.04519 15.0147 9.04542H15.0154H15.0156C15.0163 9.04542 15.0168 9.04519 15.0176 9.04519C15.0731 9.04495 15.128 9.03605 15.181 9.02097C15.1988 9.01589 15.2146 9.00659 15.2319 8.99987C15.2667 8.98644 15.3006 8.9723 15.3324 8.95261C15.3512 8.94081 15.3672 8.92597 15.3848 8.9123C15.4112 8.89144 15.4371 8.87026 15.4599 8.84464C15.4763 8.82612 15.4897 8.80573 15.5041 8.78511C15.5163 8.76761 15.5314 8.75339 15.5417 8.73448C15.5496 8.71964 15.5545 8.70425 15.5609 8.68933C15.5643 8.68238 15.5696 8.67706 15.5724 8.66988L17.1149 4.84768C17.1183 4.83978 17.1192 4.83158 17.1219 4.82346C17.1288 4.80377 17.1344 4.78408 17.1389 4.76416C17.1437 4.74494 17.1481 4.72627 17.1507 4.70705C17.1536 4.68783 17.1548 4.66861 17.1558 4.64947C17.1565 4.62955 17.1572 4.60963 17.156 4.58994C17.1549 4.57143 17.1524 4.55322 17.1498 4.53502C17.1467 4.5151 17.1438 4.49541 17.1388 4.47619C17.134 4.45822 17.1282 4.44088 17.122 4.42315C17.1155 4.40463 17.1085 4.38643 17.1004 4.36869C17.0925 4.35166 17.0831 4.33533 17.0733 4.31877C17.0634 4.30197 17.0534 4.28541 17.0419 4.26955C17.0309 4.2544 17.0184 4.24002 17.0059 4.22588C16.9924 4.21072 16.979 4.19611 16.9638 4.18221C16.9499 4.16947 16.9356 4.15822 16.9204 4.1469C16.9036 4.13393 16.8863 4.12197 16.8678 4.11088C16.8609 4.10658 16.8549 4.1008 16.8477 4.09697C13.8127 2.42845 10.1887 2.42877 7.15347 4.09697C7.14604 4.10104 7.14003 4.10682 7.13308 4.11111C7.11511 4.12189 7.09831 4.13393 7.08175 4.14643C7.06636 4.15822 7.05128 4.16994 7.03714 4.18291C7.02253 4.19635 7.00933 4.21049 6.99636 4.22518C6.98315 4.24002 6.97065 4.25471 6.95917 4.27033C6.94815 4.28549 6.93831 4.3015 6.92893 4.3176C6.91885 4.33463 6.90901 4.35166 6.90065 4.36947C6.89276 4.3865 6.88628 4.40401 6.88003 4.42182C6.87354 4.44002 6.86729 4.4583 6.86253 4.47705C6.85776 4.49557 6.85487 4.51424 6.85198 4.53322C6.84909 4.55244 6.84643 4.57135 6.8455 4.5908C6.84456 4.60979 6.84503 4.62869 6.84573 4.64768C6.84643 4.66783 6.84792 4.68776 6.85081 4.70768C6.85346 4.72619 6.85753 4.74416 6.86206 4.7626C6.86714 4.78322 6.8726 4.80362 6.87979 4.82401C6.88268 4.83166 6.88362 4.83963 6.88651 4.84729L8.42877 8.66949C8.43166 8.67644 8.4369 8.68152 8.43979 8.68847C8.44651 8.70363 8.45104 8.71918 8.45924 8.7341C8.47533 8.76339 8.49502 8.78956 8.51494 8.81496C8.51854 8.81949 8.52119 8.82503 8.52502 8.82957C8.55908 8.87035 8.59893 8.90441 8.64119 8.93418C8.65127 8.94113 8.66112 8.94738 8.67143 8.95363C8.71346 8.97957 8.7576 9.00136 8.80463 9.01628C8.80776 9.01722 8.81041 9.01894 8.81354 9.01988C8.86346 9.03503 8.91557 9.04121 8.96807 9.04292C8.97409 9.04316 8.97932 9.04558 8.98534 9.04558C8.99518 9.04558 9.00502 9.04316 9.01487 9.04269C9.03432 9.04175 9.05377 9.04003 9.07291 9.03714C9.09143 9.03425 9.1094 9.03042 9.12784 9.02589C9.14729 9.02113 9.16674 9.01582 9.18588 9.00886C9.19377 9.00597 9.20174 9.00503 9.20963 9.00191C9.22065 8.99738 9.23002 8.99066 9.2408 8.98558C9.25159 8.98027 9.26315 8.97746 9.27393 8.97144C10.9815 8.03276 13.0201 8.03276 14.7275 8.97144C14.7357 8.97597 14.7443 8.97722 14.7528 8.98152C14.766 8.988 14.7777 8.99667 14.7919 9.00214C14.8085 9.0087 14.8258 9.01183 14.8431 9.01706L14.8429 9.01706ZM9.3011 7.62722L8.20406 4.90802C10.6159 3.76106 13.3845 3.76084 15.7965 4.90802L14.699 7.62722C14.3939 7.49621 14.0833 7.38698 13.7672 7.30198L14.0511 6.3348C14.1445 6.01684 13.9623 5.68348 13.6446 5.59012C13.3251 5.49629 12.993 5.67895 12.8999 5.99692L12.578 7.09396C11.4704 6.99967 10.3474 7.17748 9.30102 7.62724L9.3011 7.62722Z" fill="#707D7E"/>
<path d="M6.44953 11.6006C4.95461 11.6006 3.73853 12.8167 3.73853 14.3116V17.198C3.73853 18.6929 4.95463 19.909 6.44953 19.909C7.94445 19.909 9.16053 18.6929 9.16053 17.198V14.3118C9.16053 12.8168 7.94443 11.6008 6.44953 11.6008V11.6006ZM7.96055 17.198C7.96055 18.0313 7.28259 18.709 6.44953 18.709C5.61649 18.709 4.93851 18.0313 4.93851 17.198V14.3118C4.93851 13.4785 5.61625 12.8008 6.44953 12.8008C7.28281 12.8008 7.96055 13.4785 7.96055 14.3118V17.198Z" fill="#707D7E"/>
<path d="M17.5503 11.6006C16.0554 11.6006 14.8391 12.8167 14.8391 14.3116V17.198C14.8391 18.6929 16.0552 19.909 17.5503 19.909C19.0452 19.909 20.2611 18.6929 20.2611 17.198V14.3118C20.2611 12.8168 19.0451 11.6008 17.5503 11.6008V11.6006ZM19.0611 17.198C19.0611 18.0313 18.3834 18.709 17.5503 18.709C16.717 18.709 16.0391 18.0313 16.0391 17.198V14.3118C16.0391 13.4785 16.717 12.8008 17.5503 12.8008C18.3834 12.8008 19.0611 13.4785 19.0611 14.3118V17.198Z" fill="#707D7E"/>
</g>
<defs>
<clipPath id="clip0_298_10033">
<rect width="24" height="24" fill="white"/>
</clipPath>
</defs>
</svg>
