<svg width="580" height="768" viewBox="0 0 580 768" fill="none" xmlns="http://www.w3.org/2000/svg">
<g clip-path="url(#clip0_561_13875)">
<rect width="580" height="768" fill="#089BAB"/>
<path d="M476.865 766.276C482.788 760.412 486.175 752.459 486.299 744.125C486.383 740.067 485.644 736.035 484.126 732.271C482.607 728.508 480.342 725.091 477.466 722.228L455.36 700.112L450.929 704.552L473.045 726.649C475.347 728.947 477.16 731.688 478.377 734.705C479.593 737.722 480.187 740.954 480.122 744.206C480.027 750.885 477.312 757.259 472.562 761.955C462.692 771.826 446.854 772.044 437.247 762.446L430.988 756.187C428.122 753.317 424.704 751.055 420.941 749.538C417.178 748.022 413.147 747.282 409.091 747.363C400.755 747.491 392.8 750.877 386.93 756.797C374.613 769.115 374.34 788.883 386.321 800.864L412.148 826.718L416.578 822.279L390.751 796.461C381.154 786.854 381.372 770.989 391.242 761.145C395.946 756.394 402.325 753.677 409.009 753.577C412.26 753.513 415.491 754.107 418.506 755.323C421.522 756.539 424.261 758.353 426.558 760.654L432.817 766.913C444.798 778.867 464.557 778.594 476.865 766.276Z" fill="white"/>
<path d="M312.506 632.948L384.829 705.271C403.933 724.429 435.464 723.993 455.15 704.297C474.837 684.602 475.273 653.135 456.115 633.985L383.801 561.662C381.159 559.098 377.608 557.688 373.927 557.741C370.246 557.794 366.736 559.305 364.169 561.944L312.788 613.325C310.15 615.891 308.638 619.399 308.585 623.078C308.533 626.758 309.943 630.308 312.506 632.948Z" fill="#6BC3CD"/>
<path d="M312.506 632.948L345.866 666.316L417.16 595.022L383.828 561.689C381.186 559.126 377.635 557.715 373.954 557.768C370.273 557.821 366.763 559.333 364.196 561.971L312.815 613.353C310.182 615.913 308.671 619.414 308.613 623.086C308.555 626.759 309.955 630.305 312.506 632.948Z" fill="#D9F0F2"/>
<path d="M312.779 613.353L364.169 561.99C366.737 559.353 370.248 557.843 373.929 557.791C377.61 557.74 381.16 559.152 383.801 561.717L456.124 634.04C475.228 653.144 474.828 684.666 455.141 704.353C435.455 724.039 403.979 724.476 384.829 705.326L312.506 632.949C309.952 630.31 308.547 626.767 308.598 623.095C308.649 619.422 310.153 615.92 312.779 613.353ZM389.259 700.868C405.998 717.607 433.617 717.243 450.829 700.013C468.041 682.783 468.423 655.182 451.684 638.443L379.371 566.13C378.646 565.419 377.788 564.86 376.846 564.482C375.904 564.105 374.897 563.918 373.882 563.931C372.867 563.945 371.866 564.159 370.934 564.561C370.002 564.963 369.16 565.546 368.454 566.275L317.055 617.665C316.327 618.371 315.745 619.214 315.344 620.146C314.942 621.077 314.729 622.079 314.715 623.093C314.701 624.108 314.888 625.115 315.265 626.056C315.641 626.998 316.2 627.856 316.909 628.582L389.259 700.868Z" fill="white"/>
<path d="M355.236 643.964L368.354 630.846L355.6 618.092L368.909 604.774L381.672 617.537L394.791 604.419L407.736 617.364L394.618 630.482L407.381 643.246L394.063 656.564L381.308 643.801L368.19 656.919L355.236 643.964Z" fill="white"/>
<path d="M348.85 319.822C350.542 324.149 352.587 328.329 354.963 332.322C355.873 333.823 356.782 335.442 357.901 337.152C365.598 349.27 379.071 366.4 402.096 386.414L433.617 413.814L465.13 386.414C486.136 368.156 499.19 352.299 507.168 340.455C508.324 338.753 509.361 337.134 510.307 335.615C513.491 330.618 516.193 325.33 518.376 319.822C522.472 308.817 522.394 296.692 518.157 285.74C513.92 274.788 505.818 265.767 495.383 260.383C484.947 254.999 472.9 253.624 461.52 256.519C450.139 259.413 440.213 266.376 433.617 276.092C427.026 266.366 417.099 259.394 405.714 256.494C394.329 253.593 382.275 254.966 371.834 260.353C361.393 265.739 353.288 274.765 349.052 285.724C344.817 296.683 344.745 308.814 348.85 319.822Z" fill="#6BC3CD"/>
<path d="M377.087 258.052C387.169 254.302 398.216 254.042 408.463 257.312C418.71 260.583 427.564 267.195 433.608 276.092C440.204 266.376 450.13 259.413 461.51 256.519C472.891 253.625 484.938 254.999 495.373 260.384C505.809 265.768 513.911 274.788 518.148 285.74C522.385 296.692 522.463 308.817 518.367 319.822C516.184 325.329 513.485 330.617 510.307 335.615C509.397 337.134 508.324 338.745 507.168 340.455C499.19 352.281 486.136 368.156 465.121 386.414L433.608 413.815L402.087 386.414C379.071 366.4 365.589 349.27 357.865 337.153C356.773 335.442 355.809 333.823 354.936 332.322C352.567 328.328 350.529 324.148 348.841 319.822C346.639 313.912 345.623 307.626 345.851 301.322C346.079 295.019 347.546 288.823 350.169 283.087C352.793 277.351 356.52 272.188 361.138 267.892C365.757 263.597 371.177 260.253 377.087 258.052ZM405.271 382.775L433.608 407.42L461.946 382.775C478.321 368.565 491.53 354.346 501.292 340.473H430.079L421.727 308.333L410.438 378.381L396.646 322.024L390.005 354.774L383.11 337.08L363.651 337.134C370.901 347.978 383.701 364.008 405.271 382.775ZM353.416 318.185C355.016 322.249 356.935 326.179 359.157 329.939C359.666 330.803 360.139 331.603 360.603 332.358L386.439 332.277L388.568 337.735L396.246 299.881L409.455 353.973L420.627 284.762L433.827 335.615H504.567C505.131 334.706 505.676 333.896 506.186 333.068C509.202 328.342 511.764 323.34 513.837 318.13C517.531 308.233 517.469 297.325 513.663 287.47C509.857 277.615 502.571 269.497 493.183 264.653C483.795 259.808 472.957 258.573 462.719 261.18C452.482 263.788 443.556 270.058 437.629 278.803L433.608 284.725L429.606 278.803C423.678 270.057 414.751 263.788 404.513 261.18C394.274 258.572 383.435 259.807 374.046 264.651C364.657 269.495 357.369 277.613 353.561 287.467C349.752 297.322 349.688 308.231 353.38 318.13L353.416 318.185Z" fill="white"/>
<path d="M550.811 144.876L634.597 228.662C638.711 232.776 638.711 239.446 634.597 243.56L611.272 266.885C607.158 270.999 600.488 270.999 596.374 266.885L512.588 183.099C508.474 178.985 508.474 172.315 512.588 168.201L535.913 144.876C540.027 140.762 546.697 140.762 550.811 144.876Z" fill="#D9F0F2"/>
<path d="M513.815 107.878L522.241 116.305L484.018 154.528L475.592 146.101L513.815 107.878Z" fill="#D9F0F2"/>
<path d="M513.873 166.916L511.971 158.292L496.115 142.435L510.152 128.398L526.008 144.255L534.632 146.165L513.873 166.916Z" fill="#6BC3CD"/>
<path d="M554.474 224.983L596.321 266.885C598.298 268.859 600.977 269.968 603.771 269.968C606.565 269.968 609.245 268.859 611.222 266.885L634.593 243.587C636.567 241.61 637.676 238.93 637.676 236.136C637.676 233.342 636.567 230.663 634.593 228.686L592.691 186.793L554.474 224.983Z" fill="#6BC3CD"/>
<path d="M512.59 168.199L535.906 144.873C537.883 142.899 540.563 141.79 543.357 141.79C546.151 141.79 548.83 142.899 550.807 144.873L634.593 228.659C636.567 230.636 637.676 233.315 637.676 236.109C637.676 238.903 636.567 241.583 634.593 243.56L624.731 253.412L662.294 290.965C662.534 291.204 662.724 291.487 662.854 291.8C662.984 292.112 663.051 292.447 663.051 292.785C663.051 293.123 662.984 293.458 662.854 293.77C662.724 294.082 662.534 294.366 662.294 294.604C662.055 294.843 661.771 295.032 661.459 295.16C661.147 295.288 660.812 295.353 660.474 295.35C660.137 295.353 659.802 295.289 659.489 295.161C659.177 295.033 658.893 294.843 658.655 294.604L621.102 257.051L611.24 266.903C609.273 268.867 606.606 269.97 603.826 269.969C602.442 269.971 601.071 269.7 599.793 269.171C598.514 268.642 597.353 267.865 596.375 266.885L583.366 253.876L579.727 250.237L512.563 183.073C510.6 181.093 509.502 178.417 509.507 175.63C509.512 172.843 510.62 170.171 512.59 168.199ZM516.229 179.488L520.705 183.955L536.17 168.49L539.809 172.129L524.344 187.594L530.075 193.325L536.024 187.375L539.663 191.014L533.723 196.964L538.472 201.74L553.937 186.275L557.576 189.914L542.11 205.379L547.824 211.083L553.773 205.142L557.412 208.781L551.462 214.731L556.284 219.571L571.749 204.105L575.388 207.744L559.923 223.209L565.618 228.895L571.476 222.927L575.115 226.566L569.166 232.516L574.87 238.129L590.335 222.664L593.974 226.302L578.508 241.768L583.394 246.644L589.307 240.712L592.946 244.351L586.942 250.264L591.872 255.186L607.337 239.721L610.976 243.36L595.511 258.825L599.987 263.301C600.491 263.808 601.091 264.209 601.751 264.482C602.412 264.756 603.12 264.895 603.835 264.893C604.548 264.894 605.255 264.755 605.914 264.481C606.573 264.208 607.171 263.807 607.674 263.301L630.981 239.948C631.995 238.926 632.564 237.544 632.564 236.105C632.564 234.665 631.995 233.283 630.981 232.261L547.205 148.485C546.183 147.471 544.801 146.902 543.361 146.902C541.922 146.902 540.54 147.471 539.518 148.485L516.193 171.801C515.179 172.823 514.61 174.205 514.61 175.645C514.61 177.084 515.179 178.466 516.193 179.488H516.229Z" fill="white"/>
<path d="M278.226 695.376L362.012 779.162C366.126 783.276 366.126 789.946 362.012 794.06L338.687 817.385C334.573 821.499 327.903 821.499 323.789 817.385L240.003 733.599C235.889 729.485 235.889 722.815 240.003 718.701L263.328 695.376C267.442 691.262 274.112 691.262 278.226 695.376Z" fill="#D9F0F2"/>
<path d="M241.223 658.393L249.65 666.82L211.427 705.043L203 696.617L241.223 658.393Z" fill="#D9F0F2"/>
<path d="M241.293 717.433L239.383 708.8L223.526 692.943L237.563 678.906L253.42 694.772L262.053 696.673L241.293 717.433Z" fill="#6BC3CD"/>
<path d="M281.894 775.501L323.787 817.348C325.764 819.322 328.444 820.431 331.238 820.431C334.031 820.431 336.711 819.322 338.688 817.348L362.004 794.032C362.983 793.053 363.759 791.892 364.289 790.613C364.819 789.335 365.091 787.965 365.091 786.581C365.091 785.197 364.819 783.827 364.289 782.549C363.759 781.27 362.983 780.109 362.004 779.13L320.112 737.283L281.894 775.501Z" fill="#6BC3CD"/>
<path d="M240.011 718.707L263.327 695.391C265.304 693.417 267.983 692.308 270.777 692.308C273.571 692.308 276.251 693.417 278.228 695.391L362.013 779.167C363.988 781.144 365.096 783.824 365.096 786.618C365.096 789.412 363.988 792.091 362.013 794.068L352.152 803.975L389.705 841.529C390.188 842.011 390.459 842.666 390.459 843.348C390.459 844.03 390.188 844.685 389.705 845.167C389.223 845.65 388.568 845.921 387.886 845.921C387.203 845.921 386.549 845.65 386.066 845.167L348.513 807.614L338.652 817.475C336.675 819.45 333.995 820.559 331.201 820.559C328.407 820.559 325.727 819.45 323.75 817.475L310.741 804.466L307.102 800.828L239.938 733.663C238.954 732.679 238.176 731.511 237.647 730.225C237.118 728.939 236.849 727.56 236.856 726.17C236.863 724.779 237.145 723.404 237.686 722.123C238.228 720.842 239.018 719.681 240.011 718.707ZM243.649 730.006L248.116 734.472L263.581 719.007L267.22 722.646L251.755 738.111L257.486 743.852L263.436 737.902L267.075 741.541L261.125 747.491L265.992 752.349L281.457 736.883L285.096 740.522L269.631 755.987L275.344 761.7L281.294 755.751L284.933 759.39L278.992 765.339L283.868 770.225L299.333 754.759L302.972 758.398L287.507 773.863L292.993 779.413L298.942 773.463L302.581 777.102L296.641 783.043L302.326 788.737L317.792 773.272L321.431 776.911L305.965 792.376L310.85 797.261L316.755 791.239L320.393 794.878L314.453 800.818L319.375 805.749L334.84 790.284L338.479 793.923L323.013 809.388L327.489 813.864C328.512 814.878 329.893 815.447 331.333 815.447C332.773 815.447 334.154 814.878 335.176 813.864L358.493 790.548C359.506 789.525 360.075 788.144 360.075 786.704C360.075 785.264 359.506 783.883 358.493 782.861L274.716 699.075C273.694 698.061 272.313 697.493 270.873 697.493C269.433 697.493 268.052 698.061 267.029 699.075L243.704 722.401C242.69 723.423 242.121 724.804 242.121 726.244C242.121 727.684 242.69 729.065 243.704 730.088L243.649 730.006Z" fill="white"/>
<path d="M555.282 612.117L639.068 695.902C643.182 700.017 643.182 706.687 639.068 710.801L615.743 734.126C611.629 738.24 604.959 738.24 600.845 734.126L517.059 650.34C512.945 646.226 512.945 639.556 517.059 635.442L540.384 612.117C544.498 608.003 551.168 608.003 555.282 612.117Z" fill="#D9F0F2"/>
<path d="M597.176 654.008L555.283 612.16C553.306 610.186 550.627 609.077 547.833 609.077C545.039 609.077 542.359 610.186 540.382 612.16L517.066 635.477C516.087 636.455 515.311 637.616 514.781 638.895C514.252 640.173 513.979 641.543 513.979 642.927C513.979 644.311 514.252 645.681 514.781 646.96C515.311 648.238 516.087 649.399 517.066 650.378L558.959 692.225L597.176 654.008Z" fill="#6BC3CD"/>
<path d="M639.06 710.801L615.743 734.117C614.766 735.097 613.604 735.873 612.326 736.403C611.047 736.932 609.677 737.203 608.293 737.201C606.909 737.204 605.538 736.933 604.26 736.403C602.981 735.874 601.82 735.097 600.842 734.117L517.057 650.341C515.083 648.364 513.974 645.685 513.974 642.891C513.974 640.097 515.083 637.417 517.057 635.44L526.9 625.579L489.347 588.025C488.864 587.543 488.593 586.888 488.593 586.206C488.593 585.523 488.864 584.869 489.347 584.386C489.829 583.904 490.484 583.633 491.166 583.633C491.849 583.633 492.503 583.904 492.986 584.386L530.539 621.976L540.382 612.115C542.359 610.14 545.039 609.031 547.833 609.031C550.627 609.031 553.306 610.14 555.283 612.115L568.292 625.124L571.931 628.763L639.06 695.9C640.039 696.878 640.817 698.039 641.347 699.318C641.877 700.596 642.15 701.967 642.15 703.351C642.15 704.735 641.877 706.105 641.347 707.384C640.817 708.662 640.039 709.824 639.06 710.801ZM635.421 699.503L630.954 695.036L615.489 710.501L611.85 706.862L627.315 691.397L621.584 685.657L615.634 691.606L611.995 687.967L618.045 682.072L613.178 677.214L597.713 692.68L594.074 689.041L609.539 673.575L603.826 667.862L597.876 673.812L594.238 670.173L600.178 664.224L595.302 659.338L579.837 674.804L576.198 671.165L591.663 655.699L586.032 650.123L580.082 656.072L576.443 652.434L582.384 646.493L576.698 640.798L561.233 656.264L557.594 652.625L573.059 637.159L568.183 632.274L562.379 638.287L558.74 634.649L564.681 628.708L559.759 623.85L544.294 639.315L540.655 635.677L556.12 620.211L551.644 615.735C550.622 614.722 549.241 614.153 547.801 614.153C546.361 614.153 544.98 614.722 543.957 615.735L520.668 639.042C519.655 640.065 519.086 641.446 519.086 642.886C519.086 644.326 519.655 645.707 520.668 646.73L604.445 730.515C604.949 731.022 605.549 731.423 606.209 731.697C606.87 731.97 607.578 732.109 608.293 732.107C609.006 732.11 609.713 731.971 610.373 731.698C611.032 731.424 611.63 731.022 612.132 730.515L635.457 707.19C635.963 706.687 636.364 706.089 636.638 705.43C636.911 704.771 637.051 704.064 637.049 703.351C637.051 702.636 636.912 701.928 636.639 701.267C636.365 700.607 635.964 700.007 635.457 699.503H635.421Z" fill="white"/>
<path d="M461.355 63.4627C433.954 77.5725 398.957 90.163 379.171 70.3766C359.384 50.5901 371.975 15.5932 386.094 -11.8076L392.835 0.582782C392.835 0.582782 380.644 26.3552 401.932 47.6335C423.219 68.9119 448.983 56.7308 448.983 56.7308L461.355 63.4627Z" fill="#6BC3CD"/>
<path d="M376.987 72.5601C348.722 44.286 380.917 -10.2973 396.391 -36.5336C404.579 -50.4705 421.391 -74.2324 441.486 -76.7797C450.529 -77.9259 459.035 -74.5963 466.749 -66.8728L462.392 -62.5152C456.024 -68.8833 449.419 -71.6124 442.26 -70.7027C424.129 -68.4011 407.854 -43.8751 401.695 -33.4042C388.158 -10.4337 356.455 43.3217 381.345 68.2207C406.235 93.1198 459.999 61.416 482.961 47.8794C493.395 41.7206 517.921 25.4457 520.259 7.30584C521.169 0.155434 518.503 -6.43095 512.072 -12.8263L516.429 -17.1838C524.171 -9.46031 527.482 -0.963524 526.336 8.0791C525.235 16.7123 518.558 34.0334 486.09 53.1831C459.854 68.6574 405.261 100.852 376.987 72.5601Z" fill="white"/>
<path d="M317.51 170.81C314.676 167.982 312.428 164.624 310.894 160.926C309.361 157.229 308.571 153.266 308.571 149.263C308.571 145.26 309.361 141.297 310.894 137.599C312.428 133.902 314.676 130.544 317.51 127.716L376.996 68.2295L381.345 72.5598L321.867 132.046C319.61 134.304 317.819 136.984 316.598 139.933C315.376 142.882 314.747 146.043 314.747 149.236C314.747 152.428 315.376 155.589 316.598 158.538C317.819 161.488 319.61 164.167 321.867 166.425C324.125 168.682 326.804 170.473 329.754 171.694C332.703 172.916 335.864 173.545 339.056 173.545C342.249 173.545 345.41 172.916 348.359 171.694C351.308 170.473 353.988 168.682 356.246 166.425L400.03 122.649C405.746 116.933 413.498 113.722 421.582 113.722C429.665 113.722 437.417 116.933 443.133 122.649C448.849 128.365 452.06 136.117 452.06 144.2C452.06 152.284 448.849 160.036 443.133 165.752L390.615 218.27L386.257 213.912L438.775 161.394C441.071 159.144 442.898 156.462 444.15 153.502C445.402 150.542 446.056 147.363 446.072 144.149C446.088 140.935 445.467 137.75 444.245 134.778C443.022 131.805 441.223 129.105 438.95 126.832C436.677 124.559 433.977 122.76 431.004 121.537C428.032 120.315 424.847 119.694 421.633 119.71C418.419 119.726 415.24 120.38 412.28 121.632C409.32 122.884 406.638 124.711 404.388 127.007L360.612 170.81C354.893 176.519 347.142 179.726 339.061 179.726C330.98 179.726 323.229 176.519 317.51 170.81Z" fill="white"/>
<path d="M388.45 236.437C377.225 236.437 368.126 227.338 368.126 216.114C368.126 204.89 377.225 195.791 388.45 195.791C399.674 195.791 408.773 204.89 408.773 216.114C408.773 227.338 399.674 236.437 388.45 236.437Z" fill="#6BC3CD"/>
<path d="M388.449 226.312C382.817 226.312 378.252 221.746 378.252 216.114C378.252 210.482 382.817 205.916 388.449 205.916C394.082 205.916 398.647 210.482 398.647 216.114C398.647 221.746 394.082 226.312 388.449 226.312Z" fill="#D9F0F2"/>
<path d="M492.167 459.254L531.703 498.782L575.37 455.115L535.842 415.588C530.052 409.797 522.198 406.544 514.009 406.544C505.82 406.544 497.966 409.797 492.176 415.588C486.385 421.378 483.132 429.232 483.132 437.421C483.132 445.61 486.385 453.464 492.176 459.254H492.167Z" fill="#6BC3CD"/>
<path d="M531.703 498.782L571.221 538.337C574.088 541.205 577.492 543.48 581.238 545.033C584.984 546.585 588.999 547.384 593.055 547.384C597.11 547.384 601.125 546.585 604.872 545.033C608.618 543.48 612.021 541.205 614.888 538.337C617.761 535.474 620.039 532.07 621.591 528.323C623.142 524.576 623.938 520.559 623.931 516.503C623.937 512.447 623.141 508.429 621.587 504.682C620.034 500.935 617.754 497.532 614.879 494.67L575.361 455.143L531.703 498.782Z" fill="#D9F0F2"/>
<path d="M575.361 455.115L614.879 494.67C617.754 497.532 620.034 500.935 621.587 504.682C623.141 508.429 623.937 512.447 623.931 516.503C623.938 520.559 623.142 524.576 621.591 528.323C620.039 532.07 617.761 535.473 614.888 538.337C612.024 541.208 608.621 543.486 604.874 545.038C601.127 546.59 597.11 547.385 593.055 547.379C588.999 547.385 584.982 546.59 581.235 545.038C577.488 543.486 574.085 541.208 571.221 538.337L531.703 498.818L575.361 455.115ZM574.36 535.171C576.812 537.628 579.726 539.575 582.935 540.899C586.144 542.224 589.583 542.899 593.055 542.885C596.528 542.895 599.969 542.216 603.178 540.887C606.387 539.558 609.3 537.606 611.749 535.143C614.206 532.701 616.154 529.797 617.481 526.597C618.808 523.398 619.488 519.967 619.482 516.503C619.492 513.03 618.813 509.589 617.484 506.38C616.155 503.171 614.203 500.258 611.74 497.808L575.352 461.42L537.98 498.8L574.36 535.171Z" fill="white"/>
<path d="M479.749 542.631C485.163 546.234 491.657 547.852 498.129 547.209C504.6 546.566 510.65 543.701 515.248 539.103C519.847 534.504 522.711 528.455 523.354 521.983C523.997 515.512 522.38 509.017 518.776 503.604L479.749 542.631Z" fill="#D9F0F2"/>
<path d="M471.916 534.798L510.943 495.771C505.53 492.167 499.035 490.55 492.563 491.193C486.092 491.836 480.043 494.7 475.444 499.299C470.845 503.897 467.981 509.947 467.338 516.418C466.695 522.89 468.313 529.384 471.916 534.798Z" fill="#D9F0F2"/>
<path d="M471.916 534.798C471.944 534.849 471.978 534.898 472.016 534.943C474.037 537.934 476.612 540.51 479.604 542.53L479.749 542.63L518.776 503.603C518.751 503.551 518.721 503.503 518.685 503.458C517.679 501.961 516.531 500.566 515.256 499.291C513.982 498.021 512.59 496.876 511.098 495.871L510.943 495.771L471.916 534.798Z" fill="#6BC3CD"/>
<path d="M475.446 499.3C478.054 496.678 481.154 494.598 484.568 493.179C487.983 491.76 491.644 491.03 495.342 491.03V495.47C490.644 495.448 486.046 496.825 482.134 499.427C478.222 502.028 475.173 505.736 473.377 510.077C471.58 514.418 471.117 519.195 472.046 523.8C472.975 528.405 475.254 532.63 478.594 535.934C479.663 537.008 480.837 537.974 482.096 538.818C485.168 540.889 488.682 542.211 492.358 542.677C496.033 543.144 499.766 542.743 503.258 541.505C506.75 540.268 509.903 538.229 512.465 535.553C515.026 532.876 516.924 529.636 518.007 526.093C519.09 522.55 519.326 518.803 518.699 515.152C518.071 511.501 516.596 508.047 514.392 505.07C512.188 502.092 509.316 499.672 506.008 498.005C502.699 496.338 499.046 495.47 495.342 495.47V491.03C500.957 491.023 506.445 492.699 511.098 495.843C514.105 497.865 516.69 500.451 518.712 503.457C521.699 507.881 523.365 513.063 523.518 518.398C523.671 523.734 522.304 529.002 519.576 533.59C516.848 538.178 512.872 541.895 508.111 544.309C503.35 546.723 498.002 547.733 492.689 547.222C487.376 546.711 482.317 544.7 478.104 541.423C473.891 538.147 470.696 533.74 468.892 528.716C467.088 523.692 466.75 518.26 467.917 513.051C469.084 507.843 471.708 503.073 475.482 499.3H475.446Z" fill="white"/>
</g>
<defs>
<clipPath id="clip0_561_13875">
<rect width="580" height="768" fill="white"/>
</clipPath>
</defs>
</svg>
